<svg width="139" height="177" viewBox="0 0 139 177" fill="none" xmlns="http://www.w3.org/2000/svg">
<path d="M20.3334 80.6078C14.9254 62.6471 11.592 31.9411 34.3334 10.9411C51.7134 -5.10825 98.6667 -6.72558 115 28.2744C117.727 34.1171 114 43.2744 106.667 42.9411C103.785 42.8078 102 51.9411 100.333 57.6078C102.667 80.6078 123.455 81.0324 134 98.6078C147 120.274 131 152.274 92.6667 152.274C54.3334 152.274 32.3587 120.544 20.3334 80.6078Z" fill="url(#paint0_linear_304_506)"/>
<path d="M7.33335 133.224C2.44469 142.64 2.13385e-05 176.941 2.13385e-05 176.941H137.333C137.333 176.941 134.889 142.64 130 133.224C122.667 119.1 68.6667 100.941 68.6667 100.941C68.6667 100.941 14.6667 119.1 7.33335 133.224Z" fill="url(#paint1_linear_304_506)"/>
<path d="M52.6667 108.941C52.6667 108.941 61.1773 113.608 69.0067 113.608C76.836 113.608 84.6667 108.941 84.6667 108.941V94.2744C86.351 94.5406 88.0573 94.642 89.7613 94.5771C105.753 94.5758 111.783 71.2818 108.667 42.9411C106.667 42.9411 102 42.9411 95.3333 33.6078C97 46.6078 77.6667 44.6078 70.3333 34.2744C74 46.6078 64.3333 54.9411 56 49.9411C39.6593 40.1364 35.986 70.0251 52.6667 70.2744V108.941Z" fill="url(#paint2_linear_304_506)"/>
<g style="mix-blend-mode:multiply" opacity="0.782">
<path d="M84.6667 94.2744C76.3968 92.7519 68.4836 89.6996 61.3334 85.2744C61.3334 85.2744 69.6667 99.6078 84.6667 99.6078V94.2744Z" fill="#FFD7B8"/>
</g>
<path d="M68.6447 112.924C63.8267 112.706 52.6667 110.346 52.6667 105.248V100.941C51.444 100.941 47.9434 103.829 46.1427 106.274C39.0254 115.941 46.92 124.608 53.3587 124.608C61.4827 124.608 66.8667 117.82 68.6667 114.554C70.4667 117.821 75.8507 124.608 83.9747 124.608C90.4134 124.608 98.308 115.941 91.1907 106.274C89.39 103.829 85.8894 100.941 84.6667 100.941V105.248C84.6667 110.346 73.2054 112.706 68.6447 112.924Z" fill="white"/>
<path d="M71.3334 158.274C71.3334 157.747 71.177 157.231 70.884 156.793C70.5909 156.354 70.1745 156.013 69.6872 155.811C69.1999 155.609 68.6637 155.556 68.1465 155.659C67.6292 155.762 67.154 156.016 66.7811 156.389C66.4081 156.762 66.1542 157.237 66.0513 157.754C65.9484 158.271 66.0012 158.808 66.203 159.295C66.4049 159.782 66.7467 160.199 67.1852 160.492C67.6237 160.785 68.1393 160.941 68.6667 160.941C69.3739 160.941 70.0522 160.66 70.5523 160.16C71.0524 159.66 71.3334 158.982 71.3334 158.274ZM71.3334 144.941C71.3334 144.414 71.177 143.898 70.884 143.46C70.5909 143.021 70.1745 142.679 69.6872 142.477C69.1999 142.276 68.6637 142.223 68.1465 142.326C67.6292 142.429 67.154 142.683 66.7811 143.055C66.4081 143.428 66.1542 143.904 66.0513 144.421C65.9484 144.938 66.0012 145.474 66.203 145.962C66.4049 146.449 66.7467 146.865 67.1852 147.158C67.6237 147.451 68.1393 147.608 68.6667 147.608C69.3739 147.608 70.0522 147.327 70.5523 146.827C71.0524 146.327 71.3334 145.648 71.3334 144.941ZM71.3334 131.608C71.3334 131.08 71.177 130.565 70.884 130.126C70.5909 129.688 70.1745 129.346 69.6872 129.144C69.1999 128.942 68.6637 128.889 68.1465 128.992C67.6292 129.095 67.154 129.349 66.7811 129.722C66.4081 130.095 66.1542 130.57 66.0513 131.088C65.9484 131.605 66.0012 132.141 66.203 132.628C66.4049 133.116 66.7467 133.532 67.1852 133.825C67.6237 134.118 68.1393 134.274 68.6667 134.274C69.3739 134.274 70.0522 133.993 70.5523 133.493C71.0524 132.993 71.3334 132.315 71.3334 131.608V131.608Z" fill="url(#paint3_linear_304_506)"/>
<defs>
<linearGradient id="paint0_linear_304_506" x1="77.412" y1="0" x2="77.412" y2="152.274" gradientUnits="userSpaceOnUse">
<stop stop-color="#130027"/>
<stop offset="1" stop-color="#130017"/>
</linearGradient>
<linearGradient id="paint1_linear_304_506" x1="68.6667" y1="176.941" x2="68.6667" y2="100.941" gradientUnits="userSpaceOnUse">
<stop stop-color="#E6864E"/>
<stop offset="1" stop-color="#E67240"/>
</linearGradient>
<linearGradient id="paint2_linear_304_506" x1="75.6356" y1="33.6078" x2="75.6356" y2="113.608" gradientUnits="userSpaceOnUse">
<stop stop-color="#FFE0CC"/>
<stop offset="1" stop-color="#FFEADB"/>
</linearGradient>
<linearGradient id="paint3_linear_304_506" x1="68.6667" y1="128.941" x2="68.6667" y2="160.941" gradientUnits="userSpaceOnUse">
<stop stop-color="#130027"/>
<stop offset="1" stop-color="#130017"/>
</linearGradient>
</defs>
</svg>
