<svg width="712" height="508" viewBox="0 0 712 508" fill="none" xmlns="http://www.w3.org/2000/svg">
<g clip-path="url(#clip0_5157_29918)">
<path d="M727 0H0.000976562V508.279H727V0Z" fill="#F7F7F7"/>
<path d="M607.104 70.2085C606.122 66.4063 604.615 62.8161 602.669 59.5158L607.184 52.7258L600.921 46.4628L594.658 40.1985L587.868 44.7132C584.566 42.7672 580.977 41.2607 577.175 40.2775L575.567 32.2913H566.708H557.851L556.242 40.2775C552.44 41.2595 548.851 42.7672 545.55 44.7132L538.76 40.1985L532.497 46.4628L526.234 52.7258L530.748 59.5158C528.802 62.8161 527.296 66.4063 526.314 70.2085L518.326 71.8155V80.6736V89.5317L526.314 91.1388C527.296 94.9409 528.802 98.5311 530.748 101.831L526.234 108.621L532.497 114.884L538.76 121.148L545.55 116.633C548.851 118.579 552.44 120.085 556.242 121.069L557.851 129.056H566.708H575.567L577.175 121.069C580.977 120.087 584.566 118.579 587.868 116.633L594.658 121.148L600.921 114.884L607.184 108.621L602.669 101.831C604.615 98.5311 606.122 94.9409 607.104 91.1388L615.091 89.5317V80.6736V71.8155L607.104 70.2085ZM566.706 111.713C549.565 111.713 535.668 97.8162 535.668 80.6736C535.668 63.5311 549.564 49.6338 566.706 49.6338C583.849 49.6338 597.746 63.5311 597.746 80.6736C597.746 97.8162 583.85 111.713 566.706 111.713Z" fill="#62676C"/>
<path d="M619.189 145.54C618.739 143.798 618.048 142.151 617.156 140.639L619.226 137.525L616.355 134.654L613.484 131.782L610.371 133.853C608.857 132.961 607.212 132.27 605.468 131.819L604.732 128.157H600.671H596.609L595.871 131.819C594.129 132.27 592.483 132.961 590.97 133.853L587.856 131.782L584.986 134.654L582.114 137.525L584.184 140.639C583.292 142.151 582.603 143.798 582.151 145.54L578.49 146.277V150.338V154.399L582.151 155.136C582.603 156.88 583.292 158.525 584.184 160.038L582.114 163.151L584.986 166.022L587.856 168.893L590.97 166.823C592.483 167.715 594.129 168.406 595.871 168.856L596.609 172.518H600.671H604.732L605.468 168.856C607.212 168.406 608.857 167.715 610.371 166.823L613.484 168.893L616.355 166.022L619.226 163.151L617.156 160.038C618.048 158.524 618.739 156.879 619.189 155.136L622.851 154.399V150.338V146.277L619.189 145.54ZM600.671 164.568C592.811 164.568 586.439 158.197 586.439 150.338C586.439 142.478 592.81 136.108 600.671 136.108C608.53 136.108 614.901 142.478 614.901 150.338C614.901 158.198 608.529 164.568 600.671 164.568Z" fill="#62676C"/>
<path d="M361.793 427.752H405.37V295.395H361.793V427.752Z" fill="#4C4F52"/>
<path d="M214.578 359.151H552.587C563.158 359.151 571.725 350.583 571.725 340.012V112.84C571.725 102.269 563.158 93.7007 552.587 93.7007H214.578C204.008 93.7007 195.439 102.269 195.439 112.84V340.013C195.439 350.583 204.007 359.151 214.578 359.151Z" fill="#232823"/>
<path d="M210 318L557 318V104L210 104V318Z" fill="white"/>
<path d="M371.445 336.588C371.445 343.292 376.878 348.726 383.583 348.726C390.287 348.726 395.72 343.292 395.72 336.588C395.72 329.884 390.287 324.45 383.583 324.45C376.878 324.451 371.445 329.886 371.445 336.588Z" fill="#4C4F52"/>
<path d="M327.235 126.578H430.819C433.146 126.578 435.032 124.692 435.032 122.366V121.767C435.032 119.442 433.147 117.556 430.819 117.556H327.235C324.91 117.556 323.024 119.442 323.024 121.767V122.366C323.024 124.692 324.909 126.578 327.235 126.578Z" fill="#DFE1E8"/>
<path d="M327.235 142.852H430.819C433.146 142.852 435.032 140.966 435.032 138.64V138.041C435.032 135.715 433.147 133.829 430.819 133.829H327.235C324.91 133.829 323.024 135.715 323.024 138.041V138.64C323.024 140.966 324.909 142.852 327.235 142.852Z" fill="#DFE1E8"/>
<path d="M327.235 159.125H430.818C433.145 159.125 435.031 157.238 435.031 154.913V154.314C435.031 151.987 433.146 150.101 430.818 150.101H327.235C324.909 150.101 323.023 151.987 323.023 154.314V154.913C323.023 157.24 324.908 159.125 327.235 159.125Z" fill="#DFE1E8"/>
<path d="M375.894 299.814H245.892C235.052 299.814 226.232 290.995 226.232 280.154V201.076C226.232 190.236 235.052 181.416 245.892 181.416H375.894C386.734 181.416 395.552 190.236 395.552 201.076V280.154C395.554 290.995 386.734 299.814 375.894 299.814ZM245.892 183.881C236.411 183.881 228.697 191.594 228.697 201.076V280.154C228.697 289.636 236.41 297.35 245.892 297.35H375.894C385.375 297.35 393.088 289.636 393.088 280.154V201.076C393.088 191.594 385.375 183.881 375.894 183.881H245.892Z" fill="#DFE1E8"/>
<path d="M256.174 211.219H365.611C370.406 211.219 374.293 207.332 374.293 202.537V200.885C374.293 196.09 370.406 192.203 365.611 192.203H256.174C251.379 192.203 247.492 196.09 247.492 200.885V202.537C247.492 207.332 251.38 211.219 256.174 211.219Z" fill="#DFE1E8"/>
<path d="M481.606 422.756H285.559V432.748H481.606V422.756Z" fill="#232823"/>
<path d="M518.44 211.22C518.44 221.608 512.826 230.685 504.465 235.586C502.785 236.569 500.994 237.384 499.113 238.007C498.945 238.064 498.775 238.12 498.603 238.172C495.954 238.995 493.139 239.438 490.221 239.438C485.714 239.438 481.456 238.382 477.677 236.505C468.385 231.886 462 222.299 462 211.22C462 195.634 474.635 183 490.219 183C505.805 183 518.44 195.634 518.44 211.22Z" fill="#EEF0F7"/>
<path d="M483.478 208.241C483.478 208.241 481.552 195.771 491.879 196.002C502.207 196.232 502.069 202.398 501.883 208.517C501.7 214.637 497.742 214.177 502.207 222.689C506.67 231.201 498.341 231.201 498.341 231.201L491.879 222.321L483.478 208.241Z" fill="#3C4145"/>
<path d="M490.75 197.198C490.75 197.198 483.755 198.302 483.48 208.24C483.204 218.18 485.367 220.296 491.487 218.225C497.606 216.155 499.54 205.756 499.678 204.146C499.814 202.535 500.183 196.002 490.75 197.198Z" fill="#EEA886"/>
<path d="M503.033 231.768C503.054 234.745 501.46 236.736 499.116 238.009C498.947 238.067 498.777 238.122 498.605 238.174C495.957 238.997 493.141 239.44 490.223 239.44C485.717 239.44 481.458 238.384 477.679 236.507C476.827 234.811 478.06 232.401 480.562 228.703C482.281 226.162 483.967 223.567 486.849 222.306C491.103 221.628 495.607 221.587 498.778 223.38C501.306 224.808 502.992 227.401 503.033 231.768Z" fill="#664848"/>
<path d="M481.93 228.551L478.716 233.619C478.723 233.591 478.937 232.823 479.301 230.602C479.37 230.179 479.444 229.705 479.525 229.175C479.546 229.018 479.581 228.861 479.625 228.708C481.001 225.534 485.293 223.173 485.449 223.095L481.93 228.551Z" fill="#664848"/>
<path d="M504.465 235.586C502.785 236.569 500.994 237.385 499.114 238.007C498.945 238.065 498.775 238.12 498.603 238.173C497.89 236.331 497.272 234.738 497.137 234.326C497.098 234.206 497.006 233.982 496.88 233.681C496.301 232.271 495.003 229.137 494.987 226.686C494.976 225.105 495.498 223.809 497.089 223.441C497.715 223.296 498.275 223.286 498.776 223.378C500.552 223.7 501.589 225.296 502.166 226.71C502.177 226.735 502.185 226.758 502.192 226.782C502.675 227.985 502.826 229.037 502.826 229.037C502.826 229.037 502.854 229.148 502.905 229.347C503.004 229.742 503.195 230.49 503.443 231.471C503.729 232.597 504.085 234.029 504.465 235.586Z" fill="#EEA886"/>
<path d="M495.42 213.749C494.813 214.894 494.174 222.001 494.174 222.001C494.174 222.001 485.619 225.235 486.495 223.405C486.892 222.575 487.009 221.498 487.016 220.569C487.024 219.838 486.963 219.197 486.921 218.844C486.9 218.657 486.882 218.549 486.882 218.549C486.882 218.549 496.026 212.604 495.42 213.749Z" fill="#EEA886"/>
<path d="M487.898 204.33C487.898 204.33 491.485 210.173 494.753 212.475C498.02 214.775 496.364 216.616 496.364 216.616C496.364 216.616 504.888 198.671 496.784 197.429C488.68 196.187 483.711 196.095 483.481 208.241C483.479 208.24 487.161 204.237 487.898 204.33Z" fill="#3C4145"/>
<path d="M491.801 218.11C490.487 220.047 487.019 220.569 487.019 220.569C487.028 219.837 486.965 219.197 486.923 218.843C489.151 219.272 491.801 218.11 491.801 218.11Z" fill="#A77860"/>
<path d="M479.64 228.669C479.64 228.669 479.453 229.054 479.301 230.602L480.561 228.7C480.561 228.7 482.811 225.474 483.582 224.635C484.353 223.795 485.469 223.059 485.469 223.059C485.469 223.059 480.986 225.188 479.64 228.669Z" fill="#7C6E6D"/>
<path d="M496.662 233.48C496.662 233.48 502.152 231.326 503.776 231.201C503.776 231.201 502.672 222.385 497.278 223.319C491.886 224.254 496.662 233.48 496.662 233.48Z" fill="#664848"/>
<path d="M486.849 222.303C486.849 222.303 482.819 228.502 484.182 229.042C485.547 229.584 492.932 228.32 496.073 222.433C496.073 222.433 491.378 220.026 486.849 222.303Z" fill="#EEA886"/>
<path d="M189.542 354.693L145.567 355.027L145.598 359.054L189.573 358.72L189.542 354.693Z" fill="#323657"/>
<path d="M198.6 315.495L185.737 357.548L189.588 358.726L202.451 316.673L198.6 315.495Z" fill="#323657"/>
<path d="M268.576 363.968H265.146V469.684H268.576V363.968Z" fill="#706865"/>
<path d="M136.409 363.968H287.224V357.957H136.409V363.968Z" fill="#B59074"/>
<path d="M155.705 469.686H159.136V363.968H155.705V469.686Z" fill="#706865"/>
<path d="M90.8962 400.271H86.7708V452.338H90.8962V400.271Z" fill="#918783"/>
<path d="M140.612 446.197C140.612 446.197 140.653 448.499 141.399 451.179C141.946 453.144 143.047 460.754 144.451 461.819C145.856 462.883 150.385 465.704 149.72 468.602C149.055 471.5 148.492 473.521 143.601 471.805C138.71 470.088 135.44 469.107 134.501 464.814C133.561 460.522 130.884 456.613 130.884 456.613L127.349 465.407L125.485 464.656C125.485 464.656 128.304 455.158 128.062 454.312C127.819 453.465 129.354 445.918 135.27 444.05C141.186 442.181 140.612 446.197 140.612 446.197Z" fill="#1D3B54"/>
<path d="M173.282 448.971C173.282 448.971 174.179 451.09 175.871 453.297C177.113 454.917 180.971 461.566 182.672 462.03C184.372 462.494 189.627 463.421 190.09 466.357C190.554 469.294 190.786 471.381 185.608 471.613C180.43 471.845 177.03 472.153 174.557 468.521C172.084 464.889 168.143 462.262 168.143 462.262V471.738H166.134C166.134 471.738 165.207 461.876 164.666 461.181C164.125 460.485 162.733 452.912 167.526 448.971C172.316 445.03 173.282 448.971 173.282 448.971Z" fill="#1D3B54"/>
<path d="M120.633 320.193C120.633 320.193 121.784 316.111 121.897 315.577C122.009 315.047 123.098 313.989 124.455 312.885C125.81 311.78 128.137 310.895 128.426 310.985C128.713 311.075 129.046 311.032 129.521 311.642C129.996 312.254 130.061 313.031 130.061 313.031C130.061 313.031 131.001 313.509 131.009 314.474C131.009 314.474 131.872 314.964 131.703 316.061C131.703 316.061 132.533 316.564 132.343 317.35C132.343 317.35 131.253 318.412 130.963 318.92C130.673 319.43 128.256 321.481 125.633 323.091C125.633 323.091 122.286 325.562 120.633 320.193Z" fill="#EEA886"/>
<path d="M125.642 316.958C125.642 316.958 126.137 318.676 126.033 319.228C125.928 319.78 129.956 319.861 129.956 319.861C129.956 319.861 127.746 316.412 125.642 316.958Z" fill="#CF8C6C"/>
<path d="M80.2919 327.209C81.9181 324.575 84.088 323.39 90.9798 328.156C97.8715 332.922 96.2525 331.988 97.9027 333.499C99.5528 335.009 106.783 338.789 106.783 338.789C106.783 338.789 111.007 334.59 113.032 331.606C115.316 328.245 120.082 319.263 120.082 319.263L126.765 324.238C126.765 324.238 113.782 347.775 111.071 349.515C108.359 351.254 100.189 348.344 95.9351 346.552C91.6815 344.76 87.1788 342.44 85.2364 341.959C83.2929 341.478 76.049 334.079 80.2919 327.209Z" fill="#1D3B54"/>
<path d="M129.251 299.848L126.014 314.6L127.263 314.874L130.499 300.121L129.251 299.848Z" fill="#6A5151"/>
<path d="M128.059 311.262C128.059 311.262 124.691 314.145 125.088 314.745C125.485 315.344 125.996 315.324 125.996 315.324L125.148 317.14C125.148 317.14 125.266 318.66 126.886 318.087C126.886 318.087 126.849 319.519 128.347 318.78C128.347 318.78 128.743 319.734 129.498 319.515C130.252 319.296 132.343 317.35 132.343 317.35C132.343 317.35 132.599 316.741 131.703 316.061C131.703 316.061 131.929 315.021 131.009 314.475C131.009 314.475 131.058 313.611 130.062 313.032C130.062 313.032 130.022 311.101 128.426 310.985C128.426 310.985 128.199 311.138 128.059 311.262Z" fill="#DB9C7C"/>
<path d="M121.943 315.623C121.943 315.623 124.2 313.582 125.921 313.007C126.31 312.878 126.712 312.823 126.979 313.135C127.246 313.449 127.133 314.232 126.2 315.166C125.269 316.1 124.49 317.735 124.49 317.735C124.49 317.735 123.251 318.415 121.943 315.623Z" fill="#EEA886"/>
<path d="M112.416 341.506C112.416 341.506 113.772 336.589 112.174 332.781C112.174 332.781 112.782 336.722 111.055 339.524C109.806 341.555 112.416 341.506 112.416 341.506Z" fill="#152C3D"/>
<path d="M137.037 342.268C137.037 342.268 140.675 315.312 147.017 303.559H137.689C137.689 303.559 127.242 321.967 129.201 340.56L137.037 342.268Z" fill="#EDDAD3"/>
<path d="M139.27 322.087C139.27 322.087 140.334 320.104 140.591 319.456C140.847 318.809 141.892 319.931 141.735 320.764C141.576 321.595 139.27 322.087 139.27 322.087Z" fill="#EEA886"/>
<path d="M147.542 326.594C147.542 326.594 147.261 327.566 146.93 327.931C146.93 327.931 146.279 328.548 145.842 329.015C145.704 329.163 145.587 329.295 145.519 329.389C145.24 329.779 144.746 330.72 143.814 331.47C142.884 332.219 139.326 334.534 139.326 334.534L136.816 331.853L134.806 329.763C134.806 329.763 136.504 323.38 137.292 322.581C137.369 322.504 137.448 322.429 137.528 322.366C138.26 321.754 139.062 321.606 139.483 321.33C139.637 321.228 141.248 320.329 141.76 320.528C142.474 320.803 142.857 321.285 142.968 321.797C142.968 321.797 144.34 322.399 144.799 323.298C144.799 323.298 146.083 323.813 146.335 325.093C146.335 325.093 147.579 325.759 147.542 326.594Z" fill="#EEA886"/>
<path d="M164.055 396.204C164.055 396.204 157.891 410.071 153.493 419.968C152.754 421.635 152.064 423.187 151.462 424.54C150.757 426.128 150.171 427.443 149.769 428.351C146.969 434.652 140.081 448.388 140.081 448.388C140.081 448.388 134.898 448.586 134.597 444.185C134.597 444.185 139.569 434.65 139.569 427.95C139.569 421.249 140.469 401.514 146.869 397.247C154.674 392.046 159.742 391.061 164.055 396.204Z" fill="#EEA886"/>
<path d="M107.064 369.847C107.064 369.847 108.365 371.147 109.464 371.447C110.564 371.747 128.966 373.148 137.466 375.948C145.966 378.748 157.267 380.549 159.366 382.949C161.467 385.349 164.967 398.549 164.866 401.049C164.766 403.55 172.337 445.682 173.28 448.972C173.78 450.714 166.434 450.047 166.434 450.047C166.434 450.047 155.995 425.151 153.767 420.551C149.67 412.1 149.466 401.75 147.966 400.149C146.465 398.549 129.765 394.949 120.164 394.949C110.564 394.949 89.062 395.749 86.7615 394.449C84.4611 393.148 70.0609 383.647 76.0617 370.947C82.0625 358.246 107.064 369.847 107.064 369.847Z" fill="#EEA886"/>
<path d="M148.593 378.942L133.361 408.251C133.361 408.251 128.773 397.375 120.769 395.503C112.763 393.631 80.8192 394.634 80.8192 394.634C80.8192 394.634 66.1604 376.092 78.714 366.364C91.2664 356.637 105.927 367.895 105.927 367.895C105.927 367.895 108.955 371.177 110.42 371.25C121.072 371.781 132.429 373.764 148.593 378.942Z" fill="#1D3B54"/>
<path d="M182.673 462.029C182.673 462.029 178.036 463.19 176.257 462.029C174.48 460.871 168.438 450.658 166.435 450.046C166.435 450.046 168.375 446.111 173.282 448.97C173.282 448.97 181.358 460.33 182.673 462.029Z" fill="#EEA886"/>
<path d="M144.45 461.819C144.45 461.819 139.715 461.164 138.499 459.425C137.282 457.688 135.486 445.957 133.857 444.642C133.857 444.642 137.125 441.714 140.611 446.197C140.611 446.197 143.866 459.75 144.45 461.819Z" fill="#EEA886"/>
<path d="M96.0747 277.802C99.7332 277.624 107.848 279.465 109.097 289.159C109.097 289.159 108.804 291.772 108.17 293.827C107.535 295.879 109.376 301.934 108.895 302.234C108.415 302.531 106.431 302.913 106.431 302.913C106.431 302.913 104.297 309.526 101.975 309.471C99.6529 309.414 90.8619 307.598 86.7221 299.369C82.581 291.142 81.3033 278.517 96.0747 277.802Z" fill="#EEA886"/>
<path d="M98.8366 306.455C98.8366 306.455 98.5516 307.382 98.227 308.758C98.0606 309.462 97.8846 310.28 97.7313 311.153C97.3097 313.567 97.063 316.387 97.6882 318.265C97.6882 318.265 92.5544 320.043 88.4984 312.787C88.4984 312.787 90.2408 304.971 87.9762 300.23C85.7129 295.491 98.8366 306.455 98.8366 306.455Z" fill="#EEA886"/>
<path d="M109.096 289.16C109.096 289.16 103.484 294.198 97.5475 293.799C91.5179 293.393 87.6044 300.927 87.6044 300.927C87.6044 300.927 78.6302 289.665 85.8644 280.559C93.0999 271.452 110.379 277.859 109.096 289.16Z" fill="#1D3B54"/>
<path d="M94.8141 293.756C94.7818 292.614 93.5124 290.902 91.6431 292.461C89.7726 294.021 92.2874 299.445 93.819 298.914C95.3518 298.382 94.8477 294.934 94.8141 293.756Z" fill="#EEA886"/>
<path d="M98.2279 308.757C98.0614 309.461 97.8854 310.279 97.7321 311.152C92.9648 308.125 90.5649 304.448 90.5649 304.448C93.2905 306.913 98.2279 308.757 98.2279 308.757Z" fill="#A77860"/>
<path d="M112.145 336.488C111.065 341.498 108.221 341.759 108.393 345.459C108.566 349.158 109.67 349.475 107.757 355.31C107.404 356.389 107.116 357.566 106.884 358.766C106.858 358.907 106.829 359.05 106.805 359.192C106.681 359.866 106.574 360.544 106.482 361.214C106.312 362.452 106.189 363.661 106.104 364.765C105.878 367.644 107.999 369.867 107.999 369.867C107.999 369.867 89.2808 381.082 76.429 379.508C76.429 379.508 79.7557 365.523 81.5891 360.72C83.4213 355.917 82.868 333.72 81.5196 328.956C79.5305 321.926 83.5051 311.387 88.9383 310.015L97.3629 313.916C97.3629 313.916 105.85 324.051 107.753 325.58C109.653 327.109 113.242 331.41 112.145 336.488Z" fill="#1D3B54"/>
<path d="M84.2994 315.969C86.6789 313.988 90.1217 310.597 95.143 317.304C100.164 324.012 103.818 328.334 104.903 330.291C105.988 332.248 115.428 345.876 115.428 345.876C115.428 345.876 120.443 341.22 123.311 339.035C126.543 336.572 135.352 327.394 135.352 327.394L141.175 333.85C141.175 333.85 120.976 356.264 117.853 357.052C114.73 357.842 105.982 349.971 102.517 346.92C99.0529 343.87 89.3326 332.763 87.6441 331.687C85.9544 330.613 78.095 321.135 84.2994 315.969Z" fill="#1D3B54"/>
<path d="M153.492 419.967C152.753 421.634 152.064 423.186 151.461 424.539C149.194 417.249 149.381 405.068 149.381 405.068C150.742 413.562 153.452 419.87 153.492 419.967Z" fill="#A77860"/>
<path d="M120.768 394.634H55.8914V401.774H120.768V394.634Z" fill="#232823"/>
<path d="M89.6513 371.861C89.6513 371.861 88.0155 378.475 95.7168 379.978C103.418 381.481 112.888 383.399 112.888 395.28H86.1797L89.6513 371.861Z" fill="#232823"/>
<path d="M129.248 299.854L130.35 297.82L130.496 300.128L129.248 299.854Z" fill="#EEA886"/>
<path d="M55.8916 401.774L33.2104 306.45C33.2104 306.45 74.2149 300.043 79.0996 318.456C83.9855 336.87 92.022 391.565 101.791 394.947C111.562 398.33 55.8916 401.774 55.8916 401.774Z" fill="#232823"/>
<path d="M108.632 352.127C108.632 352.127 108.214 353.876 107.767 355.324L97.7908 342.386L108.632 352.127Z" fill="#152C3D"/>
<path d="M83.6228 292.831C83.6228 292.831 87.5662 303.25 86.4945 306.095C86.4945 306.095 92.6497 303.467 91.5265 296.64C90.4032 289.816 83.6228 292.831 83.6228 292.831Z" fill="#1D3B54"/>
<path d="M97.8476 314.494V312.431L89.0937 308.169L86.0664 311.667L97.8476 314.494Z" fill="#1D3B54"/>
<path d="M128.878 465.779C128.878 467.653 127.359 469.171 125.486 469.171C123.613 469.171 122.095 467.653 122.095 465.779C122.095 463.906 123.613 462.388 125.486 462.388C127.359 462.388 128.878 463.906 128.878 465.779Z" fill="#BFB2AC"/>
<path d="M52.5005 462.419L53.3591 464.834L89.6513 453.59L87.9113 448.698L52.5005 462.419Z" fill="#918783"/>
<path d="M125.485 462.419L124.626 464.834L88.3352 453.59L89.9291 448.391L125.485 462.419Z" fill="#918783"/>
<path d="M99.9153 464.576V467.387L88.3352 453.59L89.9291 448.391L99.9153 464.576Z" fill="#918783"/>
<path d="M100.203 465.779C100.203 467.653 98.6847 469.171 96.8118 469.171C94.9389 469.171 93.4204 467.653 93.4204 465.779C93.4204 463.906 94.9389 462.388 96.8118 462.388C98.6847 462.388 100.203 463.906 100.203 465.779Z" fill="#BFB2AC"/>
<path d="M52.5 469.171C54.373 469.171 55.8914 467.652 55.8914 465.779C55.8914 463.906 54.373 462.388 52.5 462.388C50.627 462.388 49.1086 463.906 49.1086 465.779C49.1086 467.652 50.627 469.171 52.5 469.171Z" fill="#BFB2AC"/>
<path d="M523.436 141.72C523.436 150.717 520.201 158.956 514.833 165.341C513.575 166.834 512.204 168.226 510.729 169.501C510.307 169.865 509.877 170.222 509.44 170.564C508.945 170.955 508.441 171.332 507.928 171.698C503.094 175.123 497.397 177.409 491.228 178.163C490.142 178.297 489.039 178.383 487.924 178.419C487.524 178.432 487.122 178.438 486.718 178.438C485.53 178.438 484.354 178.382 483.198 178.272C481.903 178.148 480.629 177.959 479.377 177.703C473.814 176.576 468.709 174.189 464.369 170.853C463.058 169.848 461.821 168.758 460.661 167.588C460.436 167.361 460.212 167.13 459.993 166.896C459.169 166.027 458.393 165.117 457.663 164.17C452.857 157.963 450 150.174 450 141.72C450 121.439 466.439 105 486.719 105C506.996 105 523.436 121.439 523.436 141.72Z" fill="#EEF0F7"/>
<path d="M510.637 161.981L507.928 171.699C503.095 175.124 497.397 177.41 491.228 178.163C490.142 178.297 489.039 178.383 487.924 178.419C487.524 178.432 487.122 178.438 486.718 178.438C485.53 178.438 484.355 178.382 483.198 178.272C481.903 178.149 480.629 177.959 479.378 177.703C473.814 176.576 468.709 174.19 464.369 170.853C463.849 167.64 463.292 164.085 462.8 160.759C465.5 159.755 474.089 156.834 479.509 155C479.585 154.974 479.661 154.95 479.734 154.925C479.854 154.883 479.97 154.844 480.087 154.805C480.409 154.697 480.714 154.592 481.007 154.494C481.304 154.393 481.587 154.299 481.85 154.208C482.961 153.834 483.744 153.571 484.023 153.478C484.025 153.476 484.025 153.476 484.028 153.476C484.101 153.451 484.138 153.438 484.138 153.438L484.201 153.442L491.491 153.988L492.713 154.079L493.094 154.108C493.094 154.108 493.15 154.121 493.26 154.15C493.7 154.262 494.978 154.597 496.669 155.113C496.671 155.113 496.675 155.115 496.677 155.115C500.992 156.435 507.995 158.944 510.637 161.981Z" fill="#D9C7C1"/>
<path d="M488.629 123.486C488.629 123.486 497.37 124.962 495.887 138.648C494.404 152.335 486.689 151.127 486.171 151.107C485.655 151.088 478.411 151.272 478.028 134.538C478.028 134.538 477.918 122.167 488.629 123.486Z" fill="#EEA987"/>
<path d="M492.46 147.14C492.46 147.14 492.16 152.773 492.69 153.998C493.223 155.224 485.671 159.103 480.979 154.685C480.979 154.685 481.928 148.527 481.633 146.354C481.339 144.18 492.46 147.14 492.46 147.14Z" fill="#EEA987"/>
<path d="M496.066 134.78C496.066 134.78 497.036 133.766 497.376 134.806C497.716 135.847 495.827 140.46 495.945 140.669C495.945 140.669 495.767 141.069 495.538 140.845C495.311 140.621 496.066 134.78 496.066 134.78Z" fill="#EEA987"/>
<path d="M478.13 134.411C478.13 134.411 477.202 133.358 476.819 134.384C476.437 135.409 477.834 140.016 478.008 140.301C478.008 140.301 478.308 140.774 478.545 140.56C478.782 140.346 478.13 134.411 478.13 134.411Z" fill="#EEA987"/>
<path d="M496.626 133.616C496.323 135.489 496.04 136.88 496.04 136.88L494.767 138.541C494.767 138.541 494.843 134.867 494.648 134.29C494.575 134.071 494.487 133.684 494.399 133.264C494.251 132.572 494.103 131.79 494 131.53C493.836 131.113 486.507 128.973 479.979 131.978C479.979 131.978 480.035 132.543 480.031 133.173C480.029 133.906 479.949 134.727 479.612 134.852C478.986 135.08 479.246 139.151 479.246 139.151L478.228 137.977C478.228 137.977 477.934 135.85 477.645 133.406C477.645 133.406 477.644 133.4 477.643 133.388C477.577 132.818 477.51 132.233 477.446 131.651C477.3 129.192 477.543 124.728 480.746 122.105C482.906 121.181 486.355 120.395 492.103 122.155C492.103 122.155 493.423 122.243 493.791 122.6C497.374 126.543 496.626 133.616 496.626 133.616Z" fill="#765B52"/>
<path d="M482.233 149.278C482.233 149.278 483.628 151.215 486.869 151.142C490.111 151.069 491.518 149.378 491.518 149.378C491.518 149.378 489.984 152.589 486.854 152.554C483.724 152.521 482.233 149.278 482.233 149.278Z" fill="#C78D71"/>
<path d="M480.088 154.804C480.088 154.804 482.43 158.883 486.876 159.267C489.696 159.51 492.136 155.937 493.281 154.183C493.281 154.183 486.967 151.479 480.088 154.804Z" fill="#EEA987"/>
<path d="M492.469 152.892C492.469 152.892 490.682 155.233 486.874 157.739L489.242 161.386L493.278 154.181L492.469 152.892Z" fill="#EDDAD3"/>
<path d="M481.157 153.438C481.157 153.438 483.431 156.288 486.875 157.739L484.276 161.497L479.734 154.924L481.157 153.438Z" fill="#EDDAD3"/>
<path d="M486.875 157.739L488.904 160.826C488.904 160.826 486.775 162.032 484.792 160.749L486.875 157.739Z" fill="#565656"/>
<path d="M512.981 161.406C512.981 161.406 512.961 161.477 512.923 161.61C512.7 162.403 511.844 165.449 510.729 169.502C510.307 169.866 509.877 170.222 509.44 170.565C508.946 170.955 508.441 171.333 507.928 171.699C503.095 175.124 497.397 177.41 491.228 178.163C491.772 165.453 493.281 154.182 493.281 154.182C494.471 154.494 495.599 154.806 496.667 155.112C496.67 155.112 496.673 155.115 496.676 155.115C505.993 157.789 510.717 160.135 512.329 161.027C512.342 161.031 512.354 161.04 512.363 161.046C512.784 161.279 512.981 161.406 512.981 161.406Z" fill="#323657"/>
<path d="M479.376 177.702C473.813 176.575 468.707 174.189 464.368 170.852C463.056 169.848 461.819 168.758 460.66 167.588C460.435 167.36 460.211 167.129 459.992 166.896C459.349 164.166 458.922 162.385 458.894 162.27L458.893 162.264C458.893 162.264 463.436 159.278 479.508 154.99C479.508 154.99 479.508 154.993 479.508 154.999C479.508 155.368 479.518 165.679 479.376 177.702Z" fill="#323657"/>
<path d="M488.037 161.167C487.887 164.514 487.872 171.009 487.923 178.42C487.523 178.433 487.121 178.439 486.717 178.439C485.529 178.439 484.353 178.383 483.197 178.272C483.903 169.133 485.093 163.418 485.636 161.157C485.813 160.416 485.922 160.047 485.922 160.047L488.076 160.403C488.062 160.635 488.049 160.889 488.037 161.167Z" fill="#565656"/>
<path d="M514.832 165.341C513.574 166.834 512.203 168.226 510.728 169.501C510.306 169.865 509.877 170.222 509.439 170.565L512.328 161.026L512.329 161.023C512.341 161.03 512.353 161.036 512.363 161.046C512.54 161.162 512.725 161.351 512.922 161.611C513.489 162.35 514.139 163.653 514.832 165.341Z" fill="#323657"/>
<path d="M460.66 167.589C460.435 167.361 460.211 167.13 459.992 166.897C459.168 166.027 458.392 165.117 457.662 164.17C458.076 163.178 458.489 162.514 458.893 162.265L458.894 162.271L460.66 167.589Z" fill="#323657"/>
<path d="M269.991 86.4266H228.798C226.513 86.4266 224.662 84.5752 224.662 82.2903V79.057C224.662 76.7721 226.513 74.9208 228.798 74.9208H269.991C272.276 74.9208 274.127 76.7721 274.127 79.057V82.2903C274.127 84.5752 272.274 86.4266 269.991 86.4266Z" fill="#F5F7FF"/>
<path d="M245.118 161.783C247.414 162.561 249.873 162.996 252.432 163.03C260.181 163.13 267.114 159.508 271.523 153.824C274.58 149.882 276.427 144.951 276.493 139.579C276.5 139.046 276.489 138.513 276.463 137.988C276.336 135.602 275.856 133.31 275.074 131.16C271.797 122.14 263.207 115.647 253.045 115.516C247.569 115.444 242.505 117.232 238.446 120.293C232.777 124.568 229.078 131.322 228.981 138.969C228.846 149.53 235.622 158.571 245.118 161.783ZM234.924 139.044C234.997 133.353 237.734 128.319 241.932 125.114C244.992 122.777 248.823 121.409 252.967 121.461C260.587 121.559 267.028 126.427 269.485 133.189L269.49 133.199C270.073 134.807 270.431 136.523 270.528 138.309C270.548 138.704 270.554 139.1 270.552 139.503C270.499 143.53 269.114 147.225 266.824 150.179C263.518 154.444 258.322 157.16 252.512 157.085C250.59 157.061 248.749 156.734 247.025 156.149C239.907 153.744 234.824 146.967 234.924 139.044Z" fill="black"/>
<path d="M266.821 150.181L271.523 153.822C267.112 159.507 260.181 163.13 252.432 163.029C249.873 162.997 247.415 162.56 245.117 161.783L247.025 156.15C248.748 156.732 250.591 157.059 252.51 157.084C258.318 157.16 263.515 154.444 266.821 150.181Z" fill="#697782"/>
<path d="M270.525 138.309L276.463 137.987C276.491 138.513 276.502 139.045 276.494 139.58C276.426 144.95 274.58 149.882 271.523 153.823L266.822 150.182C269.113 147.228 270.497 143.531 270.549 139.504C270.554 139.102 270.545 138.704 270.525 138.309Z" fill="#A7AAAC"/>
<path d="M270.525 138.311C270.428 136.525 270.071 134.809 269.487 133.201L269.482 133.191L275.072 131.16C275.854 133.311 276.334 135.603 276.461 137.988L270.525 138.311Z" fill="#A7AAAC"/>
<path d="M238.445 120.293C242.503 117.231 247.568 115.444 253.044 115.516C263.206 115.647 271.796 122.14 275.072 131.16L269.487 133.2L269.482 133.191C267.025 126.428 260.585 121.559 252.965 121.462C248.82 121.41 244.989 122.778 241.93 125.116L238.445 120.293Z" fill="#4C4F52"/>
<path d="M429.492 209.115H414.101C411.042 209.115 408.563 206.636 408.563 203.577V188.187C408.563 185.128 411.042 182.65 414.101 182.65H429.492C432.552 182.65 435.03 185.13 435.03 188.187V203.577C435.03 206.636 432.552 209.115 429.492 209.115Z" fill="black"/>
<path d="M420.96 201.711L414.268 195.878C413.72 195.4 413.662 194.566 414.14 194.018C414.619 193.469 415.451 193.413 416 193.891L420.731 198.016L427.478 190.49C427.964 189.947 428.799 189.903 429.34 190.389C429.883 190.875 429.927 191.709 429.441 192.25L420.96 201.711Z" fill="#F3F3F3"/>
<path d="M429.491 243.03H414.101C411.041 243.03 408.562 240.551 408.562 237.493V222.102C408.562 219.044 411.041 216.565 414.101 216.565H429.491C432.551 216.565 435.03 219.044 435.03 222.102V237.493C435.03 240.551 432.551 243.03 429.491 243.03Z" fill="black"/>
<path d="M420.959 235.627L414.268 229.793C413.719 229.316 413.662 228.482 414.139 227.934C414.618 227.385 415.451 227.329 415.999 227.807L420.731 231.931L427.477 224.406C427.964 223.863 428.798 223.818 429.34 224.304C429.882 224.79 429.926 225.624 429.44 226.165L420.959 235.627Z" fill="#F3F3F3"/>
<path d="M429.492 276.947H414.101C411.042 276.947 408.563 274.467 408.563 271.409V256.018C408.563 252.96 411.042 250.48 414.101 250.48H429.492C432.552 250.48 435.03 252.96 435.03 256.018V271.409C435.03 274.466 432.552 276.947 429.492 276.947Z" fill="black"/>
<path d="M324.714 433.67C324.714 433.67 325.513 439.034 326.048 441.322C326.583 443.611 331.53 450.173 331.443 451.289C331.355 452.405 329.262 453.72 328.21 452.821C327.157 451.923 320.166 444.74 318.673 441.663C317.178 438.587 312.235 434.575 311.729 433.21C311.224 431.843 317.56 427.846 319.192 427.209C320.824 426.572 324.714 433.67 324.714 433.67Z" fill="#1D2033"/>
<path d="M312.325 338.224C312.325 338.224 312.979 341.645 313.46 342.277C313.942 342.91 315.242 346.09 315.374 346.539C315.506 346.986 316.305 350.199 316.441 350.605C316.576 351.012 315.663 351.645 315.038 350.787C314.648 350.254 313.967 348.174 313.69 347.503C313.414 346.833 312.561 344.709 312.331 345.096C312.101 345.483 312.157 348.331 312.119 349.064C312.081 349.795 312.547 352.048 312.765 352.981C312.983 353.914 314.222 357.821 313.725 358.032C313.228 358.243 312.808 358.185 312.166 357.136C312.166 357.136 311.149 357.705 310.555 356.418C310.555 356.418 309.645 356.747 309.082 355.07C309.082 355.07 308.436 354.715 308.184 354.114C307.934 353.512 306.46 348.371 306.473 346.273C306.486 344.178 306.978 342.716 306.888 341.237C306.799 339.756 306.041 336.59 306.041 336.59L312.325 338.224Z" fill="#EEA886"/>
<path d="M321.096 426.368L319.192 427.208L324.715 433.67L326.544 431.644L321.096 426.368Z" fill="#50558A"/>
<path d="M340.398 439.906C340.398 439.906 339.168 442.87 338.132 444.044C337.095 445.218 333.127 447.318 333.106 450.806C333.082 454.589 339.796 453.539 342.422 453.401C345.047 453.262 345.246 451.241 346.351 449.1C347.456 446.958 348.57 447.321 348.778 445.592C348.985 443.865 347.932 439.998 347.932 439.998L340.398 439.906Z" fill="#1D2033"/>
<path d="M340.282 438.812L340.091 440.607C340.091 440.607 344.22 442.091 348.124 440.761L347.906 438.309L340.282 438.812Z" fill="#50558A"/>
<path d="M363.184 393.227C363.184 388.565 359.78 347.873 359.936 346.319C360.039 345.304 358.956 335.564 358.19 328.908C358.184 328.85 358.176 328.793 358.169 328.738C358.169 328.724 358.166 328.71 358.166 328.697C357.948 326.828 357.76 325.216 357.634 324.135C357.575 323.634 357.53 323.246 357.501 323.001C357.476 322.797 357.464 322.689 357.464 322.689C357.464 322.689 335.503 318.359 324.116 322.45C323.642 322.622 323.185 322.807 322.749 323.008C322.749 323.008 322.721 323.202 322.671 323.566C322.556 324.408 322.319 326.163 322.002 328.549C321.948 328.951 321.893 329.371 321.833 329.807C320.213 342.076 321.253 355.409 324.09 369.058C326.873 382.448 328.405 392.462 328.691 394.406C329.068 396.958 330.186 403.978 331.421 411.677C325.376 419.132 320.225 425.47 320.608 426.1C321.562 427.658 330.043 436.438 330.509 434.884C330.509 434.884 332.04 433.15 334.439 430.386C335.202 435.096 335.724 438.309 335.724 438.309C335.724 438.309 345.02 440.528 348.441 438.508C348.441 438.508 347.096 428.294 345.693 417.188C354.229 406.973 363.184 395.67 363.184 393.227ZM342.572 389.859C342.455 383.599 339.67 348.51 339.965 348.51C341.336 348.51 349.056 381.925 349.344 386.627C349.402 387.59 348.198 389.745 346.253 392.58C345.377 393.857 344.351 395.27 343.223 396.775L343.222 396.776C342.837 393.337 342.589 390.808 342.572 389.859Z" fill="#0A0B0A"/>
<path d="M366.852 264.487L360.946 285.674C360.743 286.36 360.501 287.205 360.245 288.19L360.236 288.227C360.233 288.235 360.23 288.244 360.228 288.252C359.243 292.028 358.024 297.786 357.66 304.182C357.413 308.542 358.223 326.07 358.223 326.07C358.223 326.07 349.285 329.404 335.914 328.56C335.914 328.56 321.53 328.224 322.704 319.404C325.808 296.065 322.772 286.441 322.366 284.098C322.366 284.098 320.414 272.761 319.017 263.263C323.064 261.757 340.353 255.944 340.353 255.944L349.309 256.615C349.309 256.615 362.919 259.967 366.852 264.487Z" fill="#D9C7C1"/>
<path d="M344.846 225.994C344.846 225.994 353.588 227.468 352.105 241.155C350.623 254.841 342.906 253.634 342.39 253.615C341.874 253.596 334.629 253.78 334.247 237.046C334.247 237.046 334.134 224.673 344.846 225.994Z" fill="#EEA987"/>
<path d="M348.676 249.648C348.676 249.648 348.375 255.281 348.906 256.506C349.438 257.732 341.886 261.611 337.195 257.192C337.195 257.192 338.143 251.035 337.848 248.86C337.554 246.688 348.676 249.648 348.676 249.648Z" fill="#EEA987"/>
<path d="M352.281 237.285C352.281 237.285 353.251 236.272 353.591 237.313C353.931 238.354 352.042 242.968 352.16 243.176C352.16 243.176 351.98 243.576 351.753 243.352C351.525 243.128 352.281 237.285 352.281 237.285Z" fill="#EEA987"/>
<path d="M334.345 236.918C334.345 236.918 333.417 235.865 333.034 236.891C332.651 237.916 334.049 242.523 334.223 242.807C334.223 242.807 334.524 243.28 334.761 243.066C334.999 242.851 334.345 236.918 334.345 236.918Z" fill="#EEA987"/>
<path d="M352.84 236.122C352.538 237.995 352.255 239.387 352.255 239.387L350.982 241.049C350.982 241.049 351.057 237.375 350.862 236.798C350.789 236.579 350.701 236.192 350.613 235.773C350.467 235.081 350.317 234.299 350.214 234.039C350.05 233.623 342.721 231.482 336.195 234.487C336.195 234.487 336.25 235.052 336.246 235.683C336.244 236.416 336.164 237.237 335.827 237.362C335.202 237.591 335.463 241.661 335.463 241.661L334.445 240.486C334.445 240.486 334.15 238.361 333.861 235.916C333.861 235.916 333.859 235.91 333.858 235.899C333.792 235.329 333.725 234.742 333.662 234.161C333.516 231.702 333.76 227.238 336.96 224.615C339.12 223.691 342.569 222.904 348.318 224.666C348.318 224.666 349.637 224.753 350.007 225.11C353.589 229.05 352.84 236.122 352.84 236.122Z" fill="#765B52"/>
<path d="M338.448 251.785C338.448 251.785 339.843 253.723 343.085 253.65C346.327 253.577 347.734 251.887 347.734 251.887C347.734 251.887 346.2 255.096 343.069 255.063C339.94 255.028 338.448 251.785 338.448 251.785Z" fill="#C78D71"/>
<path d="M336.303 257.311C336.303 257.311 338.647 261.389 343.091 261.774C345.911 262.018 348.352 258.445 349.496 256.689C349.496 256.689 343.182 253.986 336.303 257.311Z" fill="#EEA987"/>
<path d="M348.685 255.398C348.685 255.398 346.897 257.741 343.09 260.246L345.459 263.893L349.496 256.688L348.685 255.398Z" fill="#EDDAD3"/>
<path d="M337.373 255.945C337.373 255.945 339.647 258.796 343.091 260.247L340.492 264.005L335.949 257.431L337.373 255.945Z" fill="#EDDAD3"/>
<path d="M343.091 260.246L345.119 263.333C345.119 263.333 342.989 264.538 341.008 263.256L343.091 260.246Z" fill="#565656"/>
<path d="M322.213 330.149C322.213 330.149 333.182 334.195 357.988 330.382L357.658 325.891C357.658 325.891 343.28 330.134 322.651 326.501L322.213 330.149Z" fill="#1D2033"/>
<path d="M349.496 256.689C349.496 256.689 346.931 275.85 347.283 292.375C347.634 308.902 360.117 338.914 360.117 338.914C360.117 338.914 365.573 333.637 367.949 330.649C367.949 330.649 359.455 306.14 359.611 301.718C359.766 297.298 369.197 263.915 369.197 263.915C369.197 263.915 363.955 260.495 349.496 256.689Z" fill="#323657"/>
<path d="M335.725 257.497C335.725 257.497 335.746 275.848 335.394 292.374C335.043 308.901 332.866 339.667 332.866 339.667C332.866 339.667 320.649 337.733 318.274 334.745C318.274 334.745 323.224 306.138 323.068 301.717C322.912 297.297 315.11 264.772 315.11 264.772C315.11 264.772 319.651 261.786 335.725 257.497Z" fill="#323657"/>
<path d="M343.913 327.276H337.174V332.288H343.913V327.276Z" fill="#3A4066"/>
<path d="M342.139 262.551C342.139 262.551 339.128 272.825 338.866 293.231C338.603 313.635 339.236 319.486 339.236 319.486L341.585 324.136L344.717 319.284C344.717 319.284 343.713 272.33 344.294 262.909L342.139 262.551Z" fill="#565656"/>
<path d="M359.437 339.086C359.437 339.086 360.172 338.595 360.374 338.246C360.374 338.246 360.686 337.585 360.941 337.128C361.022 336.984 361.097 336.859 361.155 336.783C361.396 336.463 362.035 335.825 362.368 334.919C362.701 334.014 362.98 329.799 362.98 329.799L360.395 329.04L358.094 328.028C358.094 328.028 353.059 331.889 352.636 332.702C352.595 332.781 352.558 332.861 352.531 332.939C352.25 333.656 352.388 334.291 352.29 334.681C352.255 334.824 352.018 336.273 352.357 336.594C352.828 337.039 353.363 337.182 353.837 337.114C353.837 337.114 354.802 337.951 355.72 338.026C355.72 338.026 356.582 338.824 357.757 338.636C357.757 338.636 358.736 339.358 359.437 339.086Z" fill="#EEA886"/>
<path d="M356.14 327.562C356.14 327.562 359.635 330.642 364.531 332.287C364.531 332.287 380.765 305.833 380.97 303.926C381.159 302.158 372.917 266.188 369.196 263.913L362.439 283.696C362.887 283.565 370.129 298.724 370.156 300.673C370.197 303.287 356.14 327.562 356.14 327.562Z" fill="#323657"/>
<path d="M314.237 341.802C314.237 341.802 310.589 342.479 305.312 342.181C305.312 342.181 307.368 308.227 307.162 306.318C306.973 304.551 311.39 267.05 315.109 264.773L321.743 284.762C321.295 284.632 317.295 305.21 317.267 307.16C317.231 309.774 314.237 341.802 314.237 341.802Z" fill="#323657"/>
<path d="M351.892 331.321L362.322 336.731L358.222 344.322L349.343 334.83L351.892 331.321Z" fill="#0A0B0A"/>
<path d="M346.252 392.579L345.199 413.222L343.223 396.775C344.351 395.27 345.376 393.857 346.252 392.579Z" fill="#1D2033"/>
<path d="M299.838 141.658H293.75V161.62H299.838V141.658Z" fill="black"/>
<path d="M517.986 274.649C517.986 290.175 505.406 302.868 489.768 302.868C474.153 302.868 461.548 290.206 461.548 274.649C461.548 259.063 474.183 246.428 489.768 246.428C505.351 246.428 517.986 259.063 517.986 274.649Z" fill="#EEF0F7"/>
<path d="M289.858 147.257H283.77V161.621H289.858V147.257Z" fill="black"/>
<path d="M309.817 132.406H303.729V161.621H309.817V132.406Z" fill="black"/>
<path d="M489.765 285.899C488.981 285.899 488.345 285.263 488.345 284.476V264.816C488.345 264.032 488.981 263.395 489.765 263.395C490.551 263.395 491.188 264.031 491.188 264.816V284.476C491.188 285.263 490.552 285.899 489.765 285.899Z" fill="#949494"/>
<path d="M499.596 276.068H479.936C479.151 276.068 478.515 275.432 478.515 274.647C478.515 273.862 479.149 273.225 479.936 273.225H499.596C500.381 273.225 501.016 273.861 501.016 274.647C501.017 275.432 500.383 276.068 499.596 276.068Z" fill="#949494"/>
<path d="M612.036 371.948H651.196V369.623H612.036V371.948Z" fill="#E2D2CA"/>
<path d="M645.946 377.998H642.515V483.715H645.946V377.998Z" fill="#706865"/>
<path d="M590.944 372.285H618.164V368.966H590.944V372.285Z" fill="#CCBDB7"/>
<path d="M599.401 371.948H609.708V340.639H599.401V371.948Z" fill="#4C4F52"/>
<path d="M514.428 377.997H665.243V371.987H514.428V377.997Z" fill="#B59074"/>
<path d="M694.188 335.604C694.188 335.604 695.837 358.737 691.318 361.506C688.487 363.24 677.198 369.088 677.532 370.185C677.866 371.282 683.906 379.945 683.906 379.945C683.906 379.945 705.59 365.666 706.289 361.165C706.972 356.769 705.221 327.296 702.241 325.938C700.009 324.92 698.83 325.763 696.018 327.852C692.068 330.783 694.188 335.604 694.188 335.604Z" fill="#1D3B54"/>
<path d="M667.507 469.282C667.507 469.282 668.18 473.962 668.267 474.665C668.35 475.368 675.768 474.251 675.768 474.251L676.368 468.679C676.368 468.679 668.435 468.621 667.507 469.282Z" fill="#424773"/>
<path d="M668.189 474.07C668.189 474.07 665.838 476.891 663.565 478.12C661.294 479.349 657.721 479.838 656.377 481.109C655.407 482.028 652.844 485.981 662.284 485.902C671.723 485.822 676.275 486.46 677.285 484.944C678.297 483.428 675.822 473.753 675.822 473.753C675.822 473.753 673.586 474.558 668.189 474.07Z" fill="#0A0B0A"/>
<path d="M619.99 469.327C619.99 469.327 620.664 474.007 620.748 474.709C620.832 475.413 628.249 474.295 628.249 474.295L628.85 468.724C628.85 468.724 620.917 468.666 619.99 469.327Z" fill="#424773"/>
<path d="M620.668 474.114C620.668 474.114 618.318 476.935 616.045 478.164C613.773 479.393 605.408 480.404 604.065 481.677C603.095 482.594 601.482 486.292 614.763 485.946C624.2 485.701 628.755 486.504 629.765 484.988C630.778 483.472 628.301 473.797 628.301 473.797C628.301 473.797 626.195 474.657 620.668 474.114Z" fill="#0A0B0A"/>
<path d="M691.431 388.433C691.431 388.433 664.465 392.995 658.375 393.95C652.285 394.906 619.262 403.124 615.133 405.628C611.846 407.621 616.856 455.49 618.027 473.753H631.033L631.977 418.969C647.586 419.36 658.724 415.318 670.09 417.045C681.455 418.771 690.93 421.224 698.153 411.536C698.153 411.536 698.422 390.546 691.431 388.433Z" fill="#0A0B0A"/>
<path d="M664.853 473.797L677.529 473.013L678.764 418.97C685.483 419.139 687.786 418.711 693.225 418.052L703.458 394.264C694.49 396.056 665.753 403.305 661.919 405.628C658.632 407.622 663.682 455.534 664.853 473.797Z" fill="#0A0B0A"/>
<path d="M679.018 287.357C679.018 287.357 669.134 284.625 665.361 292.299C661.592 299.973 663.3 314.52 668.282 315.888C673.264 317.257 680.427 315.681 682.496 310.905C684.564 306.129 686.213 299.343 685.718 294.948C685.223 290.552 681.643 288.407 679.018 287.357Z" fill="#EEA886"/>
<path d="M670.864 314.356C670.864 314.356 670.973 320.192 670.33 321.436C669.687 322.68 684.095 322.366 684.095 322.366C684.095 322.366 681.824 315.359 683.113 309.389C684.387 303.48 670.864 314.356 670.864 314.356Z" fill="#EEA886"/>
<path d="M683.887 307.181C683.887 307.181 683.117 308.746 679.388 308.493C675.659 308.241 670.74 303.742 669.158 303.339C667.573 302.938 667.48 302.036 667.48 302.036L666.643 303.525L665.02 303.773C665.02 303.773 666.122 299.263 663.72 297.675C661.318 296.087 664.801 283.3 676.963 286.383C676.963 286.383 686.244 288.083 686.369 293.266C686.493 298.448 685.69 304.435 683.887 307.181Z" fill="#3A3F47"/>
<path d="M669.571 321.288C669.571 321.288 669.612 318.911 670.69 318.682C671.768 318.455 682.016 317.045 683.338 317.564L683.907 320.702C683.907 320.702 681.357 322.272 669.571 321.288Z" fill="#E2D2CA"/>
<path d="M666.609 300.974C666.884 299.026 669.1 296.789 670.369 299.824C671.638 302.857 669.513 307.278 668.09 307.04C666.665 306.803 666.233 303.617 666.609 300.974Z" fill="#EEA886"/>
<path d="M626.647 349.373C626.652 349.371 626.659 349.37 626.665 349.371C626.591 349.403 626.581 349.406 626.647 349.373Z" fill="#323657"/>
<path d="M681.901 288.748C681.901 288.748 693.953 288.181 684.005 306.995L681.901 288.748Z" fill="#3A3F47"/>
<path d="M708.755 480.208L707.858 482.73L669.976 470.993L671.792 465.885L708.755 480.208Z" fill="#918783"/>
<path d="M668.677 469.195H672.983V428.008H668.677V469.195Z" fill="#918783"/>
<path d="M658.132 428.247H683.528V425.82H658.132V428.247Z" fill="#5E5854"/>
<path d="M632.571 480.208L633.468 482.73L671.349 470.993L669.686 465.564L632.571 480.208Z" fill="#918783"/>
<path d="M659.262 482.46V485.394L671.349 470.993L669.686 465.564L659.262 482.46Z" fill="#918783"/>
<path d="M629.031 483.715C629.031 485.671 630.617 487.255 632.571 487.255C634.526 487.255 636.112 485.671 636.112 483.715C636.112 481.761 634.526 480.175 632.571 480.175C630.617 480.175 629.031 481.761 629.031 483.715Z" fill="#BFB2AC"/>
<path d="M658.961 483.715C658.961 485.671 660.546 487.255 662.502 487.255C664.458 487.255 666.042 485.671 666.042 483.715C666.042 481.761 664.458 480.175 662.502 480.175C660.546 480.175 658.961 481.761 658.961 483.715Z" fill="#BFB2AC"/>
<path d="M705.214 483.715C705.214 485.671 706.8 487.255 708.755 487.255C710.711 487.255 712.295 485.671 712.295 483.715C712.295 481.761 710.711 480.175 708.755 480.175C706.8 480.175 705.214 481.761 705.214 483.715Z" fill="#BFB2AC"/>
<path d="M645.118 425.821H696.206C698.712 425.821 700.743 423.79 700.743 421.284V421.167C700.743 418.661 698.712 416.629 696.206 416.629H645.118C642.612 416.629 640.581 418.661 640.581 421.167V421.284C640.581 423.789 642.612 425.821 645.118 425.821Z" fill="#E2D2CA"/>
<path d="M533.723 483.716H537.152V377.998H533.723V483.716Z" fill="#706865"/>
<path d="M564.578 355.722H644.529C647.03 355.722 649.056 353.696 649.056 351.196V297.46C649.056 294.96 647.03 292.934 644.529 292.934H564.578C562.076 292.934 560.05 294.96 560.05 297.46V351.196C560.05 353.695 562.076 355.722 564.578 355.722Z" fill="#4C4F52"/>
<path d="M563.537 345.882H645.572V296.326H563.537V345.882Z" fill="#F5F7FF"/>
<path d="M563.537 300.27H645.572V296.326H563.537V300.27Z" fill="#CECFD6"/>
<path d="M569.371 342.83H573.658C575.206 342.83 576.46 341.577 576.46 340.029V306.039C576.46 304.492 575.206 303.237 573.658 303.237H569.371C567.823 303.237 566.57 304.492 566.57 306.039V340.029C566.57 341.577 567.823 342.83 569.371 342.83Z" fill="#CECFD6"/>
<path d="M626.722 306.905H641.738C642.574 306.905 643.251 306.228 643.251 305.392V304.75C643.251 303.914 642.574 303.237 641.738 303.237H626.722C625.886 303.237 625.208 303.914 625.208 304.75V305.392C625.208 306.227 625.886 306.905 626.722 306.905Z" fill="#CECFD6"/>
<path d="M628.333 343.842H640.125C641.85 343.842 643.25 342.443 643.25 340.717V312.489C643.25 310.764 641.85 309.365 640.125 309.365H628.333C626.607 309.365 625.208 310.764 625.208 312.489V340.717C625.208 342.443 626.607 343.842 628.333 343.842Z" fill="#CECFD6"/>
<path d="M601.683 350.509C601.683 352.095 602.968 353.38 604.554 353.38C606.139 353.38 607.424 352.095 607.424 350.509C607.424 348.924 606.139 347.639 604.554 347.639C602.968 347.639 601.683 348.924 601.683 350.509Z" fill="#5C5552"/>
<path d="M586.127 372.068V370.95C586.127 370.95 587.697 364 598.809 364C609.92 364 609.696 372.066 609.696 372.066H586.127V372.068Z" fill="#2E436E"/>
<path d="M609.831 365.033C609.831 365.033 607.416 364.845 606.532 364.311C605.649 363.778 600.357 360.219 599.115 360.789C597.872 361.359 589.602 363.893 589.888 365.103C590.175 366.312 590.94 366.195 591.524 365.981C592.107 365.766 598.114 364.506 598.643 364.718C598.643 364.718 592.744 366.87 592.721 368.44C592.696 370.01 593.955 370.392 594.514 370.986C595.073 371.58 595.745 373.056 597.266 373.167C598.787 373.281 606.204 370.7 607.73 370.583C609.257 370.464 612.084 370.677 612.276 370.428C612.47 370.18 609.831 365.033 609.831 365.033Z" fill="#EEA886"/>
<path d="M653.776 324.582C661.472 323.229 669.572 321.287 669.572 321.287L683.907 320.703C683.907 320.703 697.061 323.599 702.243 325.939C702.734 326.161 702.736 337.676 704.085 340.693L699.791 349.755C699.791 349.755 697.308 367.705 696.793 375.687C696.557 379.353 697.463 411.107 697.463 411.107C697.463 411.107 696.175 411.741 686.393 412.82C676.61 413.898 652.169 412.431 652.014 411.277C651.86 410.12 656.747 368.252 656.965 366.084C657.295 362.758 656.002 347.38 656.002 347.38C654.16 349.856 649.461 361.037 644.562 366.356C641.682 369.485 627.416 371.405 624.726 371.495C618.873 371.69 608.194 372.855 607.883 372.285C607.635 371.944 606.954 362.808 607.622 362.584C608.209 362.389 628.036 361.248 633.116 358.552C634.975 357.566 640.529 345.452 640.529 345.452C640.529 345.452 649.53 326.488 653.776 324.582Z" fill="#1D3B54"/>
<path d="M682.024 410.191H706.087C710.898 410.191 714.8 406.288 714.8 401.478V361.441C714.8 356.628 710.897 352.728 706.087 352.728H682.024C677.211 352.728 673.311 356.629 673.311 361.441V401.478C673.309 406.288 677.211 410.191 682.024 410.191Z" fill="#E2D2CA"/>
<path d="M680.661 423.532C686.777 423.532 691.738 421.479 695.408 417.426C703.702 408.269 702.212 392.172 702.145 391.492C702.018 390.222 700.886 389.295 699.62 389.422C698.352 389.547 697.425 390.677 697.55 391.947C697.569 392.13 698.89 406.72 691.977 414.337C689.182 417.418 685.48 418.916 680.661 418.916C679.387 418.916 678.352 419.948 678.352 421.224C678.352 422.499 679.386 423.532 680.661 423.532Z" fill="#E2D2CA"/>
<path d="M605.744 316.581C605.744 319.421 604.721 322.021 603.028 324.036C602.63 324.508 602.198 324.947 601.732 325.348C601.6 325.465 601.464 325.576 601.326 325.685C601.169 325.808 601.01 325.926 600.849 326.043C599.324 327.123 597.526 327.845 595.58 328.082C595.237 328.124 594.889 328.152 594.537 328.163C594.411 328.166 594.285 328.169 594.158 328.169C593.782 328.169 593.412 328.149 593.046 328.116C592.637 328.078 592.234 328.017 591.839 327.937C590.085 327.581 588.473 326.827 587.103 325.775C586.69 325.457 586.299 325.114 585.935 324.745C585.864 324.674 585.793 324.601 585.725 324.527C585.465 324.252 585.218 323.965 584.988 323.666C583.472 321.707 582.572 319.249 582.572 316.581C582.572 310.182 587.758 304.994 594.159 304.994C600.555 304.994 605.744 310.182 605.744 316.581Z" fill="#EEF0F7"/>
<path d="M601.704 322.975L600.85 326.042C599.324 327.122 597.527 327.844 595.581 328.081C595.237 328.123 594.89 328.15 594.538 328.161C594.412 328.165 594.285 328.167 594.158 328.167C593.782 328.167 593.412 328.148 593.047 328.114C592.637 328.076 592.235 328.015 591.84 327.936C590.085 327.579 588.473 326.826 587.104 325.773C586.939 324.76 586.765 323.638 586.61 322.589C587.462 322.271 590.173 321.35 591.883 320.771C591.907 320.763 591.93 320.754 591.953 320.747C591.992 320.733 592.029 320.721 592.065 320.709C592.167 320.675 592.264 320.642 592.355 320.611C592.448 320.58 592.538 320.548 592.622 320.521C592.973 320.402 593.219 320.32 593.307 320.291L593.309 320.29C593.331 320.283 593.344 320.278 593.344 320.278L593.363 320.279L595.663 320.45L596.049 320.479L596.17 320.489C596.17 320.489 596.188 320.493 596.223 320.502C596.36 320.538 596.764 320.643 597.298 320.806L597.3 320.807C598.662 321.225 600.871 322.017 601.704 322.975Z" fill="#D9C7C1"/>
<path d="M594.761 310.827C594.761 310.827 597.519 311.294 597.051 315.612C596.582 319.931 594.148 319.549 593.984 319.544C593.822 319.537 591.535 319.595 591.415 314.314C591.415 314.314 591.38 310.411 594.761 310.827Z" fill="#EEA987"/>
<path d="M595.969 318.293C595.969 318.293 595.874 320.07 596.041 320.458C596.209 320.845 593.825 322.068 592.345 320.675C592.345 320.675 592.644 318.731 592.551 318.046C592.459 317.357 595.969 318.293 595.969 318.293Z" fill="#EEA987"/>
<path d="M597.106 314.392C597.106 314.392 597.413 314.071 597.521 314.4C597.627 314.728 597.032 316.184 597.068 316.25C597.068 316.25 597.012 316.376 596.941 316.305C596.868 316.235 597.106 314.392 597.106 314.392Z" fill="#EEA987"/>
<path d="M591.447 314.275C591.447 314.275 591.155 313.943 591.034 314.266C590.913 314.591 591.355 316.044 591.41 316.133C591.41 316.133 591.505 316.283 591.58 316.215C591.654 316.148 591.447 314.275 591.447 314.275Z" fill="#EEA987"/>
<path d="M597.284 314.024C597.188 314.615 597.099 315.053 597.099 315.053L596.698 315.578C596.698 315.578 596.722 314.418 596.66 314.236C596.638 314.167 596.61 314.045 596.582 313.913C596.537 313.694 596.49 313.448 596.457 313.366C596.406 313.235 594.092 312.56 592.034 313.507C592.034 313.507 592.051 313.686 592.051 313.884C592.049 314.115 592.024 314.374 591.918 314.414C591.721 314.487 591.803 315.77 591.803 315.77L591.482 315.399C591.482 315.399 591.388 314.73 591.297 313.957C591.297 313.957 591.297 313.955 591.297 313.951C591.277 313.772 591.255 313.586 591.234 313.403C591.188 312.628 591.265 311.219 592.275 310.39C592.956 310.099 594.046 309.851 595.859 310.407C595.859 310.407 596.275 310.434 596.392 310.547C597.52 311.792 597.284 314.024 597.284 314.024Z" fill="#765B52"/>
<path d="M592.742 318.966C592.742 318.966 593.183 319.577 594.205 319.554C595.229 319.532 595.673 318.998 595.673 318.998C595.673 318.998 595.19 320.011 594.202 320C593.213 319.989 592.742 318.966 592.742 318.966Z" fill="#C78D71"/>
<path d="M592.064 320.71C592.064 320.71 592.803 321.997 594.207 322.118C595.096 322.195 595.868 321.068 596.229 320.514C596.229 320.514 594.235 319.661 592.064 320.71Z" fill="#EEA987"/>
<path d="M595.971 320.107C595.971 320.107 595.407 320.844 594.206 321.636L594.953 322.787L596.228 320.514L595.971 320.107Z" fill="#EDDAD3"/>
<path d="M592.402 320.279C592.402 320.279 593.121 321.179 594.207 321.637L593.387 322.823L591.953 320.749L592.402 320.279Z" fill="#EDDAD3"/>
<path d="M594.207 321.637L594.848 322.611C594.848 322.611 594.176 322.99 593.55 322.585L594.207 321.637Z" fill="#565656"/>
<path d="M602.444 322.794C602.433 322.832 601.744 325.308 601.732 325.347C601.601 325.463 601.464 325.574 601.326 325.683C601.169 325.807 601.01 325.924 600.85 326.041C599.324 327.121 597.527 327.843 595.581 328.081C595.752 324.069 596.228 320.513 596.228 320.513C596.603 320.612 596.959 320.71 597.297 320.807L597.299 320.808C598.528 321.16 601.343 322.07 602.444 322.794Z" fill="#323657"/>
<path d="M591.84 327.936C590.086 327.579 588.474 326.826 587.104 325.773C586.691 325.456 586.301 325.112 585.937 324.743C585.865 324.673 585.794 324.6 585.726 324.525C585.522 323.664 585.388 323.102 585.379 323.066V323.063C585.379 323.063 586.811 322.121 591.885 320.768C591.885 320.768 591.885 320.769 591.885 320.771C591.884 320.889 591.886 324.141 591.84 327.936Z" fill="#323657"/>
<path d="M594.574 322.718C594.527 323.773 594.522 325.823 594.538 328.162C594.412 328.166 594.285 328.168 594.158 328.168C593.782 328.168 593.412 328.149 593.047 328.115C593.271 325.232 593.646 323.428 593.817 322.715C593.873 322.481 593.907 322.364 593.907 322.364L594.587 322.476C594.582 322.549 594.578 322.631 594.574 322.718Z" fill="#565656"/>
<path d="M603.03 324.035C602.632 324.506 602.2 324.946 601.734 325.347C601.602 325.463 601.466 325.575 601.328 325.684C601.328 325.681 602.445 322.794 602.445 322.794C602.736 322.96 602.901 323.728 603.03 324.035Z" fill="#323657"/>
<path d="M585.935 324.743C585.863 324.672 585.792 324.599 585.724 324.525C585.464 324.25 585.217 323.964 584.988 323.664C585.118 323.352 585.249 323.142 585.377 323.063V323.065L585.935 324.743Z" fill="#323657"/>
</g>
<defs>
<clipPath id="clip0_5157_29918">
<rect width="712" height="508" fill="white"/>
</clipPath>
</defs>
</svg>
