<svg width="574" height="329" viewBox="0 0 574 329" fill="none" xmlns="http://www.w3.org/2000/svg">
<mask id="mask0_6407_40190" style="mask-type:alpha" maskUnits="userSpaceOnUse" x="0" y="0" width="574" height="329">
<rect width="574" height="328.547" fill="url(#paint0_linear_6407_40190)"/>
</mask>
<g mask="url(#mask0_6407_40190)">
<g clip-path="url(#clip0_6407_40190)">
<g opacity="0.1">
<path d="M30.2344 0H31.2422V326.531H30.2344V0ZM62.4844 0H63.4922V326.531H62.4844V0ZM93.7266 0H94.7344V326.531H93.7266V0ZM125.977 0H126.984V326.531H125.977V0ZM157.219 0H158.227V326.531H157.219V0ZM189.469 0H190.477V326.531H189.469V0ZM221.719 0H222.727V326.531H221.719V0ZM252.961 0H253.969V326.531H252.961V0ZM285.211 0H286.219V326.531H285.211V0ZM316.453 0H317.461V326.531H316.453V0ZM348.703 0H349.711V326.531H348.703V0Z" fill="#D4D4D8"/>
</g>
<g filter="url(#filter0_f_6407_40190)">
<path d="M380.953 131.015C372.04 126.102 361.993 122.304 348.703 120.937C327.088 118.698 309.72 109.808 291.258 99.7732L290.25 98.7654L287.227 96.7497C267.382 86.0115 245.908 75.5017 217.688 73.57C189.268 71.6086 171.231 85.3572 156.211 100.781C152.677 104.462 149.521 108.053 146.133 111.867L145.125 112.875C141.748 116.686 138.605 120.317 135.047 123.961C128.084 130.974 121.072 137.035 112.875 140.086C104.34 143.275 96.4961 148.42 88.6875 154.195C86.6981 155.671 84.6699 156.691 82.6406 158.226C76.6922 162.724 70.3856 167.977 63.4922 172.336C47.2981 182.588 27.5675 190.734 -2.01562 190.476V192.492C27.9952 192.759 48.0274 183.765 64.5 173.343C71.4631 168.925 77.6801 164.749 83.6484 160.242C85.6578 158.716 87.7357 156.639 89.6953 155.203C97.484 149.437 105.627 144.174 113.883 141.093C122.487 137.894 129.032 132.051 136.055 124.968C139.576 121.422 143.649 117.766 147.141 113.883V113.883C150.503 110.138 154.656 105.454 158.227 101.789C173.078 86.5334 190.134 73.6936 217.688 75.5857C245.45 77.4975 266.404 88.0469 286.219 98.7654L290.25 100.781C308.652 110.786 326.66 120.674 348.703 122.953C362.152 124.34 372.011 127.949 380.953 133.031V131.015Z" fill="#232831"/>
</g>
<path d="M380.953 131.016C372.03 126.064 362.032 122.305 348.703 120.938C326.988 118.69 308.702 108.79 290.25 98.7664C288.997 98.0731 288.5 97.4342 287.227 96.7508C267.392 86.0141 245.788 75.5025 217.688 73.5711C189.477 71.6298 171.182 85.4001 156.211 100.782C152.63 104.467 149.505 108.134 146.133 111.868V112.876C142.748 116.689 138.611 120.315 135.047 123.962C128.064 130.994 121.171 136.996 112.875 140.087C104.42 143.246 96.4861 148.422 88.6875 154.196C86.6981 155.652 85.6578 156.712 83.6484 158.227C77.6801 162.734 71.4133 167.979 64.5 172.337C48.2363 182.638 27.6769 190.735 -2.01562 190.477V191.485C27.8858 191.753 48.0871 182.717 64.5 172.337C71.4432 167.939 77.6801 163.752 83.6484 159.235C85.6578 157.72 87.7357 155.642 89.6953 154.196C97.4939 148.422 105.547 144.205 113.883 141.095C122.378 137.925 129.042 131.024 136.055 123.962C139.566 120.426 143.649 116.758 147.141 112.876V112.876C150.523 109.132 153.648 105.464 157.219 101.79C172.11 86.4871 189.915 72.6673 217.688 74.5789C245.56 76.5004 266.404 87.0318 286.219 97.7586L290.25 99.7742C308.662 109.778 326.769 119.688 348.703 121.946C362.112 123.333 372.011 126.983 380.953 132.024V131.016Z" fill="#232831"/>
<g filter="url(#filter1_f_6407_40190)">
<path d="M380.953 15.1178C379.64 15.1576 378.285 15.0878 376.922 15.1178C368.825 15.2973 359.304 14.927 347.695 13.1021C335.659 11.2274 325.774 15.9405 316.453 23.1803C307.162 30.3901 298.476 40.1 290.25 50.3912L289.242 52.4068V52.4068C281.483 62.1097 273.311 71.45 265.055 78.6099C256.291 86.2187 247.529 93.3874 236.836 92.7193C225.466 92.0013 215.776 96.3654 207.609 102.797C199.831 108.91 193.18 116.852 186.445 124.969L185.438 125.977C178.355 134.493 171.293 142.405 163.266 148.149C155.278 153.853 146.029 157.847 135.047 156.212C107.692 152.123 95.2563 148.576 86.6719 145.126C82.779 143.509 79.2666 142.143 75.5859 140.087V139.079C70.9381 136.536 66.3272 135.16 61.4766 133.032C40.3188 123.808 20.6939 117.137 -2.01562 117.915V119.93C20.2861 119.162 39.4005 124.855 60.4688 134.04C65.2696 136.145 69.9801 138.575 74.5781 141.094V141.094C78.3481 143.119 82.315 145.396 86.6719 147.141C95.4752 150.681 107.662 154.129 135.047 158.227C146.645 159.952 155.967 156.108 164.273 150.165C172.55 144.241 179.393 135.461 186.445 126.985L187.453 125.977C194.237 117.8 201.017 109.789 208.617 103.805C216.525 97.5926 225.085 94.0568 235.828 94.7349C247.267 95.4629 257.09 88.4038 266.062 80.6256C274.458 73.3459 282.531 64.0754 290.25 54.4224V53.4146L292.266 52.4068C300.522 42.0957 308.389 32.2362 317.461 25.1959C326.503 18.1655 336.365 13.3527 347.695 15.1178C357.393 16.6339 367.111 17.4222 376.922 17.1334C378.285 17.1035 379.66 17.1832 380.953 17.1334V15.1178Z" fill="#F8961E"/>
</g>
<path d="M380.953 16.1253C379.65 16.1652 378.285 16.0954 376.922 16.1253C368.805 16.3048 359.344 15.9349 347.695 14.1097C335.838 12.2545 325.694 16.9966 316.453 24.1878C307.212 31.3591 299.494 41.1056 291.258 51.3987L289.242 53.4144V53.4144C281.503 63.109 273.351 72.4263 265.055 79.6175C256.231 87.2675 247.708 94.4151 236.836 93.7269C225.606 93.0187 215.706 97.4316 207.609 103.805C199.87 109.889 193.19 117.848 186.445 125.977L185.438 126.985C178.375 135.492 171.353 143.372 163.266 149.157C155.198 154.931 146.178 158.885 135.047 157.219C107.692 153.13 95.316 149.594 86.6719 146.133C82.3946 144.408 79.3758 142.121 75.5859 140.086V140.086C70.9482 137.546 66.3173 135.157 61.4766 133.032C40.3387 123.826 20.5845 118.144 -2.01562 118.922V119.93C20.3856 119.162 39.3707 124.833 60.4688 134.039C66.5366 136.672 70.7484 139.049 74.5781 141.094V141.094C78.3581 143.109 82.3448 145.395 86.6719 147.141C95.4254 150.652 107.672 154.138 135.047 158.227C146.486 159.942 156.047 156.049 164.273 150.164C172.49 144.28 179.393 136.49 186.445 127.992L187.453 125.977C194.237 117.818 200.978 109.819 208.617 103.805C216.595 97.5314 224.916 94.0465 235.828 94.7347C247.069 95.4428 257.14 88.3751 266.062 80.6253C274.418 73.3743 282.521 64.0969 290.25 54.4222L291.258 52.4066C299.514 42.0835 308.329 32.2771 317.461 25.1956C326.573 18.1141 336.196 13.3222 347.695 15.1175C357.367 16.6286 367.138 17.4233 376.922 17.1331C378.285 17.1032 379.65 17.183 380.953 17.1331V16.1253Z" fill="#F8961E"/>
<g filter="url(#filter2_f_6407_40190)">
<path d="M380.953 69.5387C370.081 71.8013 358.509 77.976 341.648 91.7106C330.915 100.442 319.943 101.586 309.398 98.7653C298.765 95.9247 288.409 89.2561 277.148 80.6247C273.508 77.8339 269.803 74.5345 266.062 71.5544C258.274 65.3349 250.161 59.0252 241.875 53.4137C229.58 45.0913 216.576 36.1192 202.57 34.2653C174.42 30.5376 156.886 50.4208 143.109 68.5309C140.493 71.9795 137.424 76.3078 135.047 79.6169C131.128 85.0688 127.622 89.5401 123.961 93.7262C118.092 100.444 112.826 104.472 106.828 103.804C99.9048 103.027 92.9983 105.895 86.6719 110.859C80.3454 115.823 74.5195 122.781 68.5312 130.007C66.7871 132.119 65.2163 133.927 63.4922 136.054C59.5165 141.059 54.6626 146.418 50.3906 151.172C44.6212 157.411 39.6272 162.349 34.2656 164.273C24.3383 167.821 17.3333 163.907 8.0625 158.226L6.04688 156.211C3.51033 154.666 1.01828 153.724 -2.01562 152.179V154.195C0.610446 155.57 2.79099 156.851 5.03906 158.226L7.05469 159.234C16.1763 164.845 24.421 170.166 35.2734 166.289C41.1324 164.196 46.6269 158.449 52.4062 152.179C56.5244 147.714 60.3023 143.243 64.5 138.07C66.2209 135.957 67.8082 133.088 69.5391 131.015C75.5074 123.799 81.5323 117.689 87.6797 112.875C93.8271 108.051 100.661 105.132 106.828 105.82C113.911 106.617 120.068 101.482 125.977 94.734C129.677 90.4881 133.084 86.1464 137.062 80.6247C139.42 77.3355 141.581 73.8755 144.117 70.5465C157.844 52.4863 175.593 32.7028 202.57 36.2809C216.138 38.075 228.682 47.1866 240.867 55.4294C249.094 60.991 257.296 67.3804 265.055 73.57C268.815 76.5701 272.44 78.8018 276.141 81.6325C287.401 90.2739 298.347 97.8207 309.398 100.781C320.539 103.761 331.416 102.876 342.656 93.7262C359.109 80.3305 370.558 73.7969 380.953 71.5544V69.5387Z" fill="#0081F1"/>
</g>
<path d="M380.953 70.5474C370.2 72.8109 358.41 79.0683 341.648 92.7192C330.806 101.564 320.092 102.636 309.398 99.7739C298.655 96.9021 288.409 90.2785 277.148 81.6333C273.424 78.7532 269.732 75.5128 266.062 72.563C258.284 66.3508 250.151 59.0085 241.875 53.4145C229.61 45.1083 216.467 37.1186 202.57 35.2739C174.718 31.5845 156.876 51.4314 143.109 69.5395C140.587 72.8892 138.485 76.2004 136.055 79.6177C132.126 85.092 128.639 90.5369 124.969 94.7349C119.09 101.466 113.105 105.521 106.828 104.813C100.104 104.065 93.9663 106.932 87.6797 111.868C81.393 116.794 74.5195 123.787 68.5312 131.016C66.7929 133.124 65.2088 134.937 63.4922 137.063C59.5024 142.08 55.6829 147.414 51.3984 152.18C45.629 158.432 39.7466 163.317 34.2656 165.282C24.1095 168.921 17.2935 164.909 8.0625 159.235C7.3463 158.796 6.80287 157.668 6.04688 157.219C3.41872 155.603 0.719436 154.615 -2.01562 153.188V154.196C0.709919 155.612 2.72136 156.821 5.03906 158.227L8.0625 159.235C17.2239 164.859 23.6519 170.099 34.2656 166.29C40.0052 164.245 46.6269 158.462 52.4062 152.18C56.5145 147.733 60.2923 143.236 64.5 138.071C66.211 135.955 67.8084 134.123 69.5391 132.024C75.5174 124.805 81.4826 117.742 87.6797 112.875C93.8768 108.019 100.462 105.103 106.828 105.821C113.632 106.579 119.07 102.483 124.969 95.7427C128.649 91.5148 133.113 86.1397 137.062 80.6255C139.43 77.3349 141.561 73.9177 144.117 70.5474C157.854 52.4691 175.295 32.6721 202.57 36.2817C216.238 38.0965 228.642 46.146 240.867 54.4224C249.104 59.9964 257.296 67.3785 265.055 73.5708C268.815 76.5722 272.46 78.8014 276.141 81.6333C287.411 90.2785 298.456 97.8501 309.398 100.782C320.39 103.723 331.555 102.771 342.656 93.727C359.208 80.2357 370.439 73.7888 380.953 71.5552V70.5474Z" fill="#0081F1"/>
</g>
</g>
<defs>
<filter id="filter0_f_6407_40190" x="-8.0625" y="67.3359" width="395.062" height="131.209" filterUnits="userSpaceOnUse" color-interpolation-filters="sRGB">
<feFlood flood-opacity="0" result="BackgroundImageFix"/>
<feBlend mode="normal" in="SourceGraphic" in2="BackgroundImageFix" result="shape"/>
<feGaussianBlur stdDeviation="3.02344" result="effect1_foregroundBlur_6407_40190"/>
</filter>
<filter id="filter1_f_6407_40190" x="-8.0625" y="6.64258" width="395.062" height="158.046" filterUnits="userSpaceOnUse" color-interpolation-filters="sRGB">
<feFlood flood-opacity="0" result="BackgroundImageFix"/>
<feBlend mode="normal" in="SourceGraphic" in2="BackgroundImageFix" result="shape"/>
<feGaussianBlur stdDeviation="3.02344" result="effect1_foregroundBlur_6407_40190"/>
</filter>
<filter id="filter2_f_6407_40190" x="-8.0625" y="27.7637" width="395.062" height="145.897" filterUnits="userSpaceOnUse" color-interpolation-filters="sRGB">
<feFlood flood-opacity="0" result="BackgroundImageFix"/>
<feBlend mode="normal" in="SourceGraphic" in2="BackgroundImageFix" result="shape"/>
<feGaussianBlur stdDeviation="3.02344" result="effect1_foregroundBlur_6407_40190"/>
</filter>
<linearGradient id="paint0_linear_6407_40190" x1="574" y1="164.273" x2="0" y2="164.273" gradientUnits="userSpaceOnUse">
<stop stop-opacity="0"/>
<stop offset="1"/>
</linearGradient>
<clipPath id="clip0_6407_40190">
<rect width="395.062" height="327.539" fill="white" transform="translate(-8.0625)"/>
</clipPath>
</defs>
</svg>
