<svg width="590" height="361" viewBox="0 0 590 361" fill="none" xmlns="http://www.w3.org/2000/svg">
<g clip-path="url(#clip0_6417_41897)">
<path opacity="0.3" d="M454.791 170C454.791 112.565 382.564 66 293.463 66C204.362 66 132.135 112.565 132.135 170C132.135 227.435 204.346 274 293.463 274C382.564 274 454.791 227.435 454.791 170Z" stroke="url(#paint0_linear_6417_41897)" stroke-width="1.5" stroke-miterlimit="10"/>
<path opacity="0.3" d="M510.105 171C510.105 94.5054 413.817 32 295.001 32C176.215 32 79.8965 94.5054 79.8965 171C79.8965 247.495 176.2 309 295.001 309C413.786 309 510.105 247.495 510.105 171V171Z" stroke="url(#paint1_linear_6417_41897)" stroke-width="1.5" stroke-miterlimit="10"/>
<path opacity="0.3" d="M585.39 170C585.39 66.168 455.8 -18 294.999 -18C134.199 -18 3.07227 66.168 3.07227 170C3.07227 273.832 134.199 358 294.999 358C455.8 358 585.39 273.832 585.39 170Z" stroke="url(#paint2_linear_6417_41897)" stroke-width="1.5" stroke-miterlimit="10"/>
</g>
<defs>
<linearGradient id="paint0_linear_6417_41897" x1="131.487" y1="170.035" x2="455.377" y2="170.035" gradientUnits="userSpaceOnUse">
<stop stop-color="#A3A7B1" stop-opacity="0"/>
<stop offset="0.49" stop-color="#A3A7B1"/>
<stop offset="1" stop-color="#A3A7B1" stop-opacity="0"/>
</linearGradient>
<linearGradient id="paint1_linear_6417_41897" x1="79.0324" y1="170.55" x2="510.876" y2="170.55" gradientUnits="userSpaceOnUse">
<stop stop-color="#A3A7B1" stop-opacity="0"/>
<stop offset="0.49" stop-color="#A3A7B1"/>
<stop offset="1" stop-color="#A3A7B1" stop-opacity="0"/>
</linearGradient>
<linearGradient id="paint2_linear_6417_41897" x1="1.90258" y1="170.06" x2="586.437" y2="170.06" gradientUnits="userSpaceOnUse">
<stop stop-color="#A3A7B1" stop-opacity="0"/>
<stop offset="0.49" stop-color="#A3A7B1"/>
<stop offset="1" stop-color="#A3A7B1" stop-opacity="0"/>
</linearGradient>
<clipPath id="clip0_6417_41897">
<rect width="590" height="361" fill="white"/>
</clipPath>
</defs>
</svg>
