<svg width="572" height="326" viewBox="0 0 572 326" fill="none" xmlns="http://www.w3.org/2000/svg">
<mask id="mask0_6418_42959" style="mask-type:alpha" maskUnits="userSpaceOnUse" x="0" y="0" width="572" height="326">
<rect width="572" height="326" fill="url(#paint0_linear_6418_42959)"/>
</mask>
<g mask="url(#mask0_6418_42959)">
<g opacity="0.1">
<path d="M48.8066 0H50.3015V324H48.8066V0ZM96.6434 0H98.1383V324H96.6434V0ZM142.985 0H144.48V324H142.985V0ZM190.822 0H192.317V324H190.822V0ZM237.164 0H238.659V324H237.164V0ZM285.001 0H286.495V324H285.001V0ZM332.837 0H334.332V324H332.837V0ZM379.179 0H380.674V324H379.179V0ZM427.016 0H428.511V324H427.016V0ZM473.358 0H474.853V324H473.358V0ZM521.194 0H522.689V324H521.194V0Z" fill="#D4D4D8"/>
</g>
<path d="M569.03 130C555.795 125.086 540.965 121.357 521.193 120C488.983 117.769 461.859 107.946 434.489 98.0003C432.63 97.3124 431.893 96.6784 430.004 96.0003C400.583 85.3469 368.539 74.9167 326.857 73.0003C285.012 71.074 257.874 84.7376 235.668 100C230.356 103.656 225.721 107.295 220.719 111V112C215.699 115.784 209.562 119.381 204.275 123C193.917 129.978 183.693 135.934 171.387 139C158.846 142.135 147.077 147.271 135.51 153C132.559 154.445 131.016 155.497 128.035 157C119.182 161.472 109.887 166.676 99.632 171C75.5079 181.221 45.0119 189.256 0.96875 189V190C45.3218 190.266 75.2865 181.3 99.632 171C109.931 166.637 119.182 162.482 128.035 158C131.016 156.497 134.098 154.435 137.004 153C148.572 147.271 160.517 143.086 172.882 140C185.483 136.855 195.368 130.008 205.77 123C210.978 119.492 217.035 115.853 222.214 112V112C227.23 108.285 231.866 104.646 237.163 101C259.251 85.8162 285.661 72.1035 326.857 74.0003C368.2 75.9069 399.118 86.3567 428.51 97.0003L434.489 99.0003C461.8 108.926 488.659 118.76 521.193 121C541.083 122.376 555.765 125.998 569.03 131V130Z" fill="#232831"/>
<path d="M569 18.2733C567.707 18.3438 566.352 18.2205 565 18.2733C556.946 18.5905 547.558 17.937 536 14.713C524.235 11.436 514.169 19.8124 505 32.5149C495.831 45.1821 488.172 62.3983 480 80.58L478 84.1404V84.1404C470.321 101.265 462.232 117.723 454 130.425C445.245 143.938 436.788 156.564 426 155.348C414.857 154.097 405.034 161.892 397 173.15C389.321 183.897 382.692 197.956 376 212.314L375 214.094C367.992 229.122 361.024 243.04 353 253.258C344.995 263.459 336.045 270.442 325 267.5C297.857 260.277 285.577 254.031 277 247.918C272.756 244.87 269.761 240.831 266 237.237V237.237C261.398 232.75 256.803 228.53 252 224.775C231.026 208.514 211.425 198.479 189 199.853V201.633C211.228 200.276 230.065 210.294 251 226.556C257.021 231.207 261.2 235.405 265 239.017V239.017C268.751 242.576 272.706 246.615 277 249.698C285.686 255.9 297.837 262.057 325 269.28C336.351 272.31 345.837 265.433 354 255.039C362.153 244.644 369.002 230.885 376 215.874L377 212.314C383.731 197.903 390.42 183.773 398 173.15C405.916 162.068 414.172 155.913 425 157.128C436.153 158.379 446.146 145.895 455 132.206C463.291 119.397 471.331 103.01 479 85.9206L480 82.3602C488.192 64.1257 496.939 46.8037 506 34.295C515.041 21.7864 524.59 13.3219 536 16.4931C545.596 19.1623 555.292 20.5661 565 20.0535C566.352 20.0007 567.707 20.1416 569 20.0535V18.2733Z" fill="#F8961E"/>
<path d="M569 114.228C558.33 118.235 546.631 129.311 530 153.474C519.242 169.13 508.61 171.028 498 165.962C487.34 160.879 477.173 149.154 466 133.851C462.305 128.753 458.641 123.017 455 117.796C447.282 106.8 439.212 93.8033 431 83.9015C418.83 69.1986 405.789 55.0561 392 51.7908C364.364 45.2602 346.66 80.391 333 112.444C330.497 118.374 328.412 124.235 326 130.283C322.101 139.974 318.642 149.612 315 157.042C309.167 168.956 303.228 176.135 297 174.882C290.328 173.558 284.238 178.632 278 187.369C271.762 196.088 264.942 208.467 259 221.264C257.275 224.996 255.703 228.204 254 231.967C250.041 240.847 246.251 250.289 242 258.726C236.275 269.793 230.438 278.44 225 281.917C214.923 288.359 208.159 281.257 199 271.214C198.289 270.437 197.75 268.44 197 267.646C194.392 264.784 191.714 263.036 189 260.51V262.294C191.704 264.8 193.7 266.941 196 269.43L199 271.214C208.09 281.168 214.469 290.443 225 283.701C230.695 280.083 237.265 269.846 243 258.726C247.076 250.854 250.825 242.894 255 233.751C256.698 230.007 258.283 226.763 260 223.048C265.932 210.269 271.851 197.766 278 189.153C284.149 180.557 290.683 175.395 297 176.666C303.751 178.007 309.147 170.758 315 158.826C318.652 151.342 323.082 141.828 327 132.067C329.349 126.243 331.463 120.194 334 114.228C347.631 82.2279 364.936 47.1853 392 53.5747C405.562 56.7871 417.87 71.0355 430 85.6854C438.172 95.552 446.301 108.619 454 119.58C457.731 124.893 461.348 128.839 465 133.851C476.183 149.154 487.143 162.557 498 167.746C508.906 172.953 519.985 171.267 531 155.258C547.424 131.377 558.567 119.966 569 116.012V114.228Z" fill="#0081F1"/>
</g>
<defs>
<linearGradient id="paint0_linear_6418_42959" x1="286" y1="97.5" x2="286" y2="326" gradientUnits="userSpaceOnUse">
<stop offset="0.394941"/>
<stop offset="1" stop-opacity="0"/>
</linearGradient>
</defs>
</svg>
