<svg width="152" height="55" viewBox="0 0 152 55" fill="none" xmlns="http://www.w3.org/2000/svg">
<g clip-path="url(#clip0_6344_42422)">
<g clip-path="url(#clip1_6344_42422)">
<mask id="mask0_6344_42422" style="mask-type:luminance" maskUnits="userSpaceOnUse" x="0" y="0" width="151" height="54">
<path d="M150.5 0H0.5V54H150.5V0Z" fill="white"/>
</mask>
<g mask="url(#mask0_6344_42422)">
<path d="M50.5 36H44.5V19H50.5C52.2882 19 54.2094 19.3193 55.5 20C56.7905 20.6751 57.8056 21.7328 58.5 23C59.2002 24.2673 59.5 25.2347 59.5 27C59.5 28.7709 59.2002 30.7272 58.5 32C57.8056 33.2728 56.8021 34.3193 55.5 35C54.2037 35.6807 52.3055 36 50.5 36ZM48.5 33H50.5C51.6112 33 52.7419 32.3763 53.5 32C54.2639 31.6182 55.1181 31.7969 55.5 31C55.8878 30.1976 55.5 28.2672 55.5 27C55.5 25.7438 55.8878 24.7968 55.5 24C55.1181 23.2031 54.2581 23.3763 53.5 23C52.7419 22.6238 51.6111 22 50.5 22H48.5V33Z" fill="white"/>
<path d="M67.5 36.9993C66.2076 36.9993 65.4325 36.5643 64.5 35.9993C63.5729 35.4285 63.0017 35.0409 62.5 33.9993C61.9983 32.9518 61.5 31.4293 61.5 29.9993C61.5 28.6046 61.9983 27.0526 62.5 25.9993C63.0017 24.9459 63.5893 24.5878 64.5 23.9993C65.4161 23.4108 66.2675 22.9993 67.5 22.9993C68.329 22.9993 68.7855 22.7108 69.5 22.9993C70.2198 23.2817 70.9656 24.4284 71.5 24.9993C72.0399 25.5701 73.2001 26.1343 73.5 26.9993C73.7999 27.8584 73.5 28.8458 73.5 29.9993V30.9993H62.5V28.9993H70.5C70.5 28.4579 69.7182 27.4171 69.5 26.9993C69.2818 26.5815 68.8872 26.2347 68.5 25.9993C68.1183 25.758 68.0072 25.9993 67.5 25.9993C66.9711 25.9993 66.909 25.7345 66.5 25.9993C66.0964 26.2582 65.7291 26.558 65.5 26.9993C65.271 27.4348 64.5054 28.4638 64.5 28.9993V30.9993C64.5 31.6701 65.271 32.5108 65.5 32.9993C65.7345 33.4877 66.0746 33.7346 66.5 33.9993C66.9254 34.2641 66.9165 33.9993 67.5 33.9993C67.8872 33.9993 68.1783 34.117 68.5 33.9993C68.8218 33.8816 69.271 33.2347 69.5 32.9993C69.7291 32.764 70.38 33.3407 70.5 32.9993H73.5C73.3365 33.8349 73.0072 34.3756 72.5 34.9993C71.9983 35.6172 71.2962 35.652 70.5 35.9993C69.7093 36.3406 68.5362 36.9993 67.5 36.9993Z" fill="white"/>
<path d="M87.5 23L83.5 36H78.5L74.5 23H78.5L80.5 32H81.5L83.5 23H87.5Z" fill="white"/>
<path d="M93.5 36L88.5 19H92.5L95.5 31L98.5 19H102.5L105.5 31L108.5 19H112.5L107.5 36H103.5L100.5 25L97.5 36H93.5Z" fill="white"/>
<path d="M114.5 36V23H118.5V36H114.5ZM116.5 22C115.95 22 115.895 21.3491 115.5 21C115.112 20.6452 114.5 20.4933 114.5 20C114.5 19.5122 115.112 19.3491 115.5 19C115.895 18.6452 115.95 18 116.5 18C117.051 18 117.111 18.6452 117.5 19C117.894 19.3491 118.5 19.5122 118.5 20C118.5 20.4933 117.894 20.6452 117.5 21C117.111 21.3491 117.051 22 116.5 22Z" fill="white"/>
<path d="M132.5 27H128.5C128.442 26.7058 128.692 26.2354 128.5 26C128.309 25.7588 127.813 26.1412 127.5 26C127.193 25.8528 126.929 26 126.5 26C125.927 26 125.895 25.7528 125.5 26C125.106 26.2412 124.5 26.5939 124.5 27C124.5 27.3237 124.245 27.7764 124.5 28C124.755 28.2236 125.88 27.8646 126.5 28L128.5 29C129.798 29.2707 130.863 29.3998 131.5 30C132.137 30.6002 132.5 32.0231 132.5 33C132.5 33.8885 132.016 34.3292 131.5 35C130.99 35.6708 130.392 35.6233 129.5 36C128.614 36.3707 127.659 37 126.5 37C124.733 37 123.549 36.7474 122.5 36C121.458 35.2467 120.679 34.2947 120.5 33H124.5C124.61 33.5473 124.077 33.7117 124.5 34C124.923 34.2824 125.839 34 126.5 34C127.148 34 128.106 34.2531 128.5 34C128.9 33.7411 128.494 33.406 128.5 33C128.494 32.6586 128.778 32.2177 128.5 32C128.222 31.7764 128.079 32.1177 127.5 32L124.5 31C123.196 30.7352 122.137 30.6532 121.5 30C120.868 29.3469 120.5 28.0122 120.5 27C120.5 26.1291 121.037 25.6297 121.5 25C121.97 24.3704 122.654 24.3413 123.5 24C124.351 23.6586 125.359 23 126.5 23C128.185 23 129.532 23.2762 130.5 24C131.474 24.7239 132.338 25.7524 132.5 27Z" fill="white"/>
<path d="M140.5 36.9993C139.208 36.9993 138.432 36.5643 137.5 35.9993C136.573 35.4285 136.002 35.0409 135.5 33.9993C134.998 32.9518 134.5 31.4293 134.5 29.9993C134.5 28.6046 134.998 27.0526 135.5 25.9993C136.002 24.9459 136.589 24.5878 137.5 23.9993C138.417 23.4108 139.268 22.9993 140.5 22.9993C141.329 22.9993 141.786 22.7108 142.5 22.9993C143.22 23.2817 143.966 24.4284 144.5 24.9993C145.04 25.5701 146.2 26.1343 146.5 26.9993C146.799 27.8584 146.5 28.8458 146.5 29.9993V30.9993H135.5V28.9993H143.5C143.5 28.4579 142.718 27.4171 142.5 26.9993C142.282 26.5815 141.888 26.2347 141.5 25.9993C141.118 25.758 141.007 25.9993 140.5 25.9993C139.971 25.9993 139.909 25.7345 139.5 25.9993C139.097 26.2582 138.729 26.558 138.5 26.9993C138.272 27.4348 137.506 28.4638 137.5 28.9993V30.9993C137.5 31.6701 138.271 32.5108 138.5 32.9993C138.734 33.4877 139.075 33.7346 139.5 33.9993C139.925 34.2641 139.916 33.9993 140.5 33.9993C140.887 33.9993 141.178 34.117 141.5 33.9993C141.822 33.8816 142.271 33.2347 142.5 32.9993C142.728 32.764 143.38 33.3407 143.5 32.9993H146.5C146.336 33.8349 146.007 34.3756 145.5 34.9993C144.998 35.6172 144.297 35.652 143.5 35.9993C142.709 36.3406 141.537 36.9993 140.5 36.9993Z" fill="white"/>
<path fill-rule="evenodd" clip-rule="evenodd" d="M36.4982 29C36.5469 28.5 36.4982 28.5127 36.4982 28C36.4982 27.6939 36.5157 27.3017 36.4982 27H5.49818C5.48067 27.3017 5.49818 27.6939 5.49818 28C5.49818 28.5127 5.44954 28.5 5.49818 29H36.4982ZM35.4982 33H6.49818C6.79742 33.8467 7.06325 34.2281 7.49818 35H34.4982C34.9331 34.2281 35.199 33.8467 35.4982 33ZM31.4982 39H10.4982C13.2771 41.637 17.3648 43 21.4982 43C25.6315 43 28.7193 41.637 31.4982 39ZM6.49818 23H35.4982C35.239 22.1567 34.8907 21.7752 34.4982 21H7.49818C7.10577 21.7752 6.75733 22.1567 6.49818 23ZM9.49818 17H32.4982C29.6721 14.0059 25.9403 12 21.4982 12C17.056 12 12.3242 14.0059 9.49818 17Z" fill="white"/>
<path fill-rule="evenodd" clip-rule="evenodd" d="M36.4982 29C36.5469 28.5 36.4982 28.5127 36.4982 28C36.4982 27.6939 36.5157 27.3017 36.4982 27H5.49818C5.48067 27.3017 5.49818 27.6939 5.49818 28C5.49818 28.5127 5.44954 28.5 5.49818 29H36.4982ZM35.4982 33H6.49818C6.79742 33.8467 7.06325 34.2281 7.49818 35H34.4982C34.9331 34.2281 35.199 33.8467 35.4982 33ZM31.4982 39H10.4982C13.2771 41.637 17.3648 43 21.4982 43C25.6315 43 28.7193 41.637 31.4982 39ZM6.49818 23H35.4982C35.239 22.1567 34.8907 21.7752 34.4982 21H7.49818C7.10577 21.7752 6.75733 22.1567 6.49818 23ZM9.49818 17H32.4982C29.6721 14.0059 25.9403 12 21.4982 12C17.056 12 12.3242 14.0059 9.49818 17Z" fill="white"/>
</g>
</g>
</g>
<defs>
<clipPath id="clip0_6344_42422">
<rect width="151" height="55" fill="white" transform="translate(0.5)"/>
</clipPath>
<clipPath id="clip1_6344_42422">
<rect width="151" height="55" fill="white" transform="translate(0.5)"/>
</clipPath>
</defs>
</svg>
