<svg width="151" height="55" viewBox="0 0 151 55" fill="none" xmlns="http://www.w3.org/2000/svg">
<g clip-path="url(#clip0_6344_42479)">
<g clip-path="url(#clip1_6344_42479)">
<mask id="mask0_6344_42479" style="mask-type:luminance" maskUnits="userSpaceOnUse" x="0" y="0" width="150" height="54">
<path d="M150 0H0V54H150V0Z" fill="white"/>
</mask>
<g mask="url(#mask0_6344_42479)">
<mask id="mask1_6344_42479" style="mask-type:luminance" maskUnits="userSpaceOnUse" x="0" y="0" width="150" height="54">
<path d="M150 0H0V54H150V0Z" fill="white"/>
</mask>
<g mask="url(#mask1_6344_42479)">
<path d="M65 21V38H61V31H54V38H50V21H54V28H61V21H65Z" fill="white"/>
<path d="M69 23C68.261 23 67.476 22.4328 67 22C66.5402 21.5505 66 20.6492 66 20C66 19.3341 66.5402 19.4328 67 19C67.476 18.5505 68.261 18 69 18C69.7225 18 69.5405 18.5505 70 19C70.4763 19.4328 71 19.3341 71 20C71 20.6492 70.4763 21.5505 70 22C69.5405 22.4328 69.7225 23 69 23ZM71 24V38H66V24H71Z" fill="white"/>
<path d="M81 34V38H79C77.4148 38 75.8864 37.7347 75 37C74.1138 36.2486 74 34.6821 74 33V28H72V24H74V21H78V24H81V28H78V33C78 33.4084 77.796 33.8203 78 34C78.2047 34.1797 78.523 34 79 34H81Z" fill="white"/>
<path d="M95 31C95 31.3902 95.05 31.5774 95 32H85C85.0668 32.8456 85.5162 33.5446 86 34C86.4997 34.4389 87.2835 35 88 35C89.0669 35 89.583 33.8781 90 33H95C94.7672 33.8944 93.6165 35.2845 93 36C92.4002 36.7155 91.9168 36.5937 91 37C90.0833 37.4067 89.1337 38 88 38C86.6336 38 85.0662 37.5689 84 37C82.9332 36.4308 82.6005 36.0569 82 35C81.4001 33.943 81 32.4145 81 31C81 29.5851 81.4161 28.0569 82 27C82.5998 25.9431 82.9332 25.5691 84 25C85.0661 24.4309 86.617 24 88 24C89.3505 24 90.9498 24.4471 92 25C93.0502 25.5529 93.4169 25.9756 94 27C94.5999 28.0243 95 29.6342 95 31ZM91 30C91 29.2845 90.5004 28.4228 90 28C89.5003 27.5773 88.7492 27 88 27C87.2828 27 86.5005 27.5935 86 28C85.517 28.4065 85.116 29.252 85 30H91Z" fill="white"/>
<path d="M96 31C96 29.5851 96.4033 28.0569 97 27C97.6129 25.9431 97.9271 25.5691 99 25C100.09 24.4309 101.604 24 103 24C104.788 24 106.807 24.1057 108 25C109.21 25.8943 109.626 27.3739 110 29H105C104.608 27.9593 104.124 28 103 28C102.199 28 101.477 27.3984 101 28C100.523 28.5853 100 29.8943 100 31C100 32.1057 100.523 33.3985 101 34C101.477 34.5853 102.199 34 103 34C104.124 34 104.608 34.041 105 33H110C109.626 34.5937 109.21 36.0896 108 37C106.79 37.9107 104.771 38 103 38C101.604 38 100.09 37.5689 99 37C97.9271 36.4308 97.6129 36.0569 97 35C96.4033 33.943 96 32.4145 96 31Z" fill="white"/>
<path d="M119 24C120.615 24 122.024 24.9621 123 26C123.975 27.0216 124 28.2 124 30V38H120V31C120 30.092 119.487 29.5027 119 29C118.512 28.4973 117.823 28 117 28C116.176 28 115.488 28.4973 115 29C114.513 29.5027 114 30.092 114 31V38H110V20H114V26C114.437 25.4 115.243 25.3567 116 25C116.757 24.6432 118.058 24 119 24Z" fill="white"/>
<path d="M28 29V14H33V22C33.8936 21.6641 34.9847 21 36 21C40.4183 21 44 24.6965 44 29V38H39V29C39 27.4508 37.5906 26 36 26C34.4101 26 33.0011 27.4517 33 29V38H28V29Z" fill="white"/>
<path d="M39 19V14H44V19H39Z" fill="white"/>
</g>
</g>
</g>
</g>
<defs>
<clipPath id="clip0_6344_42479">
<rect width="151" height="55" fill="white"/>
</clipPath>
<clipPath id="clip1_6344_42479">
<rect width="151" height="55" fill="white"/>
</clipPath>
</defs>
</svg>
