<svg width="151" height="55" viewBox="0 0 151 55" fill="none" xmlns="http://www.w3.org/2000/svg">
<g clip-path="url(#clip0_6344_42439)">
<g clip-path="url(#clip1_6344_42439)">
<mask id="mask0_6344_42439" style="mask-type:luminance" maskUnits="userSpaceOnUse" x="0" y="0" width="150" height="54">
<path d="M150 0H0V54H150V0Z" fill="white"/>
</mask>
<g mask="url(#mask0_6344_42439)">
<mask id="mask1_6344_42439" style="mask-type:luminance" maskUnits="userSpaceOnUse" x="0" y="0" width="150" height="54">
<path d="M150 0H0V54H150V0Z" fill="white"/>
</mask>
<g mask="url(#mask1_6344_42439)">
<path d="M61 19H64V36H61V19Z" fill="white"/>
<path d="M74 22.9998C75.6639 22.9998 76.9948 23.0528 78 23.9998C79.0053 24.9467 80 27.1381 80 28.9998V35.9998H77V28.9998C77 27.8762 76.5432 26.5614 76 25.9998C75.4561 25.422 75.005 25.9998 74 25.9998C72.8629 25.9998 71.6589 26.3257 71 26.9998C70.3409 27.6579 70 27.7482 70 28.9998V35.9998H67V22.9998H70V24.9998C70.5108 24.4059 71.2255 23.3047 72 22.9998C72.7745 22.6949 73.0279 22.9998 74 22.9998Z" fill="white"/>
<path d="M96 23L90 36H87L81 23H84L89 33L93 23H96Z" fill="white"/>
<path d="M109 30C109 30.222 109.035 30.5903 109 31H98C98.1886 32.0067 99.2137 32.4027 100 33C100.803 33.5802 101.821 34 103 34C104.504 34 105.025 33.9896 106 33L108 35C107.385 35.7338 106.94 35.6247 106 36C105.058 36.3756 104.179 37 103 37C101.495 37 100.146 36.5969 99 36C97.8551 35.4027 96.6324 35.0578 96 34C95.3838 32.9251 95 31.3478 95 30C95 28.669 95.4016 27.0579 96 26C96.6146 24.925 96.923 24.5971 98 24C99.0769 23.4028 100.649 23 102 23C103.332 23 104.957 23.4028 106 24C107.06 24.5801 107.418 24.9251 108 26C108.598 27.0579 109 28.601 109 30ZM102 26C100.974 26 99.7177 25.3856 99 26C98.2988 26.5972 98.1539 27.9933 98 29H106C105.863 28.0104 105.7 26.6143 105 26C104.299 25.3856 103.042 26 102 26Z" fill="white"/>
<path d="M113 25C113.932 23.6367 115.653 23 118 23V26C117.724 25.9512 117.225 25 117 25C115.741 25 114.708 26.3021 114 27C113.293 27.6816 113 28.7014 113 30V36H110V23H113V25Z" fill="white"/>
<path d="M128 35C127.626 35.2913 127.545 35.8544 127 36C126.473 36.1459 125.595 36 125 36C123.503 36 121.817 35.7446 121 35C120.184 34.2554 120 33.4242 120 32V25H118V23H120V20H123V23H127V25H123V32C123 32.6314 123.678 32.6599 124 33C124.323 33.3237 124.387 33 125 33C125.715 33 126.524 33.356 127 33L128 35Z" fill="white"/>
<path fill-rule="evenodd" clip-rule="evenodd" d="M53 28C53 36.8367 45.8367 44 37 44C28.1635 44 21 36.8367 21 28C21 19.1635 28.1635 12 37 12C45.8367 12 53 19.1635 53 28ZM48 28C48 34.0592 43.0593 39 37 39C36.5799 39 36.4079 39.0458 36 39C41.5141 38.4206 46 33.6678 46 28C46 22.3609 41.4743 17.617 36 17C36.3813 16.96 36.6081 17 37 17C43.0593 17 48 21.9408 48 28ZM33 36C36.616 35.3613 40 31.8724 40 28C40 24.1275 36.616 20.6385 33 20C33.4376 19.9242 34.5407 20 35 20C39.3316 20 43 23.6684 43 28C43 32.3316 39.3316 36 35 36C34.5407 36 33.4376 36.0756 33 36Z" fill="white"/>
</g>
</g>
</g>
</g>
<defs>
<clipPath id="clip0_6344_42439">
<rect width="151" height="55" fill="white"/>
</clipPath>
<clipPath id="clip1_6344_42439">
<rect width="151" height="55" fill="white"/>
</clipPath>
</defs>
</svg>
