<svg width="153" height="55" viewBox="0 0 153 55" fill="none" xmlns="http://www.w3.org/2000/svg">
<g clip-path="url(#clip0_6344_42458)">
<g clip-path="url(#clip1_6344_42458)">
<mask id="mask0_6344_42458" style="mask-type:luminance" maskUnits="userSpaceOnUse" x="1" y="0" width="151" height="54">
<path d="M151.5 0H1.5V54H151.5V0Z" fill="white"/>
</mask>
<g mask="url(#mask0_6344_42458)">
<mask id="mask1_6344_42458" style="mask-type:luminance" maskUnits="userSpaceOnUse" x="1" y="0" width="151" height="54">
<path d="M151.5 0H1.5V54H151.5V0Z" fill="white"/>
</mask>
<g mask="url(#mask1_6344_42458)">
<path d="M31.5 43H21.5L31.5 28H41.5L31.5 43Z" fill="white"/>
<path d="M28.5 12H38.5L28.5 28H17.5L28.5 12Z" fill="white"/>
<path d="M62.5 25C62.5 25.9092 61.9598 27.2043 61.5 28C61.0573 28.7955 60.4704 29.5128 59.5 30C58.5464 30.4871 57.9644 30 56.5 30H53.5V37H49.5V20H56.5C57.8791 20 58.5295 20.5453 59.5 21C60.4707 21.4545 61.023 22.2043 61.5 23C61.9938 23.7956 62.5 23.9934 62.5 25ZM55.5 28C56.4877 28 58.0231 27.4224 58.5 27C58.9767 26.5619 58.5 25.7795 58.5 25C58.5 23.3439 57.4413 23 55.5 23H53.5V28H55.5Z" fill="white"/>
<path d="M67.5 25C67.9645 24.2693 67.7601 24.4151 68.5 24C69.257 23.5849 70.5365 23 71.5 23V27H70.5C69.3647 27 68.085 26.4849 67.5 27C66.9323 27.5148 67.5 28.7212 67.5 30V37H63.5V23H67.5V25Z" fill="white"/>
<path d="M78.5 37C77.1899 37 75.5478 36.571 74.5 36C73.4521 35.4126 73.1057 35.0607 72.5 34C71.9105 32.9394 71.5 31.3871 71.5 30C71.5 28.6132 71.8941 27.0605 72.5 26C73.1222 24.9393 73.4356 24.5712 74.5 24C75.5643 23.4126 77.1899 23 78.5 23C79.8093 23 81.436 23.4126 82.5 24C83.5646 24.5712 83.8938 24.9393 84.5 26C85.1223 27.0605 85.5 28.6132 85.5 30C85.5 31.3871 85.1385 32.9394 84.5 34C83.8776 35.0607 82.5809 35.4126 81.5 36C80.436 36.571 79.8263 37 78.5 37ZM78.5 34C79.1216 34 79.96 34.2936 80.5 34C81.0569 33.69 81.173 32.6036 81.5 32C81.8277 31.3961 81.5 30.8649 81.5 30C81.5 28.711 81.1877 27.6855 80.5 27C79.8284 26.2984 79.4824 26 78.5 26C77.5176 26 76.1711 26.2984 75.5 27C74.8448 27.6855 74.5 28.711 74.5 30C74.5 31.289 74.8613 32.2984 75.5 33C76.1546 33.6852 77.5176 34 78.5 34Z" fill="white"/>
<path d="M90.5 35H94.5V38H87.5V18H90.5V35Z" fill="white"/>
<path d="M97.5 22C96.9267 22 96.8875 22.3912 96.5 22C96.1278 21.5918 95.5 20.5953 95.5 20C95.5 19.4048 96.1278 19.3912 96.5 19C96.8875 18.5919 96.9267 18 97.5 18C98.0739 18 98.1278 18.5919 98.5 19C98.8875 19.3912 99.5 19.4048 99.5 20C99.5 20.5953 98.8875 21.5918 98.5 22C98.1278 22.3912 98.0739 22 97.5 22ZM99.5 24V38H95.5V24H99.5Z" fill="white"/>
<path d="M110.5 23C112.125 23 112.499 23.9537 113.5 25C114.501 26.0295 115.5 27.1401 115.5 29V37H112.5V29C112.5 27.9038 112.042 27.5815 111.5 27C110.957 26.4022 110.435 26 109.5 26C108.548 26 107.058 26.4022 106.5 27C105.958 27.5815 105.5 27.9038 105.5 29V37H102.5V23H105.5V25C105.959 24.4021 106.793 24.3321 107.5 24C108.221 23.6512 109.646 23 110.5 23Z" fill="white"/>
<path d="M130.5 30C130.5 30.4895 130.569 30.6084 130.5 31H120.5C120.584 31.979 120.873 32.4453 121.5 33C122.127 33.5549 122.586 34 123.5 34C124.821 34 125.94 34.0932 126.5 33H130.5C130.094 34.3055 128.651 35.1513 127.5 36C126.348 36.832 125.178 37 123.5 37C122.146 37 120.584 36.571 119.5 36C118.433 35.4126 118.11 35.0607 117.5 34C116.908 32.9394 116.5 31.3871 116.5 30C116.5 28.5969 116.908 27.0606 117.5 26C118.093 24.9394 118.433 24.5711 119.5 24C120.566 23.4288 122.112 23 123.5 23C124.839 23 126.45 23.4452 127.5 24C128.566 24.5548 128.925 24.9718 129.5 26C130.093 27.0116 130.5 28.6782 130.5 30ZM126.5 29C126.484 28.1187 126.144 27.5223 125.5 27C124.856 26.4616 124.432 26 123.5 26C122.62 26 122.109 26.4777 121.5 27C120.908 27.5057 120.635 28.0862 120.5 29H126.5Z" fill="white"/>
</g>
</g>
</g>
</g>
<defs>
<clipPath id="clip0_6344_42458">
<rect width="152" height="55" fill="white" transform="translate(0.5)"/>
</clipPath>
<clipPath id="clip1_6344_42458">
<rect width="152" height="55" fill="white" transform="translate(0.5)"/>
</clipPath>
</defs>
</svg>
